<mxfile host="Electron" modified="2023-12-03T11:09:49.809Z" agent="Mozilla/5.0 (Windows NT 10.0; Win64; x64) AppleWebKit/537.36 (KHTML, like Gecko) draw.io/21.1.2 Chrome/106.0.5249.199 Electron/21.4.3 Safari/537.36" etag="Uvnd8eitRsxzLYnMZYYx" version="21.1.2" type="device">
  <diagram name="Страница 1" id="Sbrz1S6o_yf-UW7Sa0x6">
    <mxGraphModel dx="4441" dy="560" grid="1" gridSize="10" guides="1" tooltips="1" connect="1" arrows="1" fold="1" page="1" pageScale="1" pageWidth="1654" pageHeight="1169" math="0" shadow="0">
      <root>
        <mxCell id="0" />
        <mxCell id="1" parent="0" />
        <mxCell id="wbYHn1VK7xFjra4TpRxV-48" value="&lt;b style=&quot;border-color: var(--border-color); font-size: 14px;&quot;&gt;request&lt;/b&gt;" style="shape=table;startSize=30;container=1;collapsible=1;childLayout=tableLayout;fixedRows=1;rowLines=0;fontStyle=1;align=center;resizeLast=1;html=1;" parent="1" vertex="1">
          <mxGeometry x="-2848" y="154" width="250" height="216" as="geometry">
            <mxRectangle x="-1458" y="194" width="90" height="30" as="alternateBounds" />
          </mxGeometry>
        </mxCell>
        <mxCell id="wbYHn1VK7xFjra4TpRxV-49" value="" style="shape=tableRow;horizontal=0;startSize=0;swimlaneHead=0;swimlaneBody=0;fillColor=none;collapsible=0;dropTarget=0;points=[[0,0.5],[1,0.5]];portConstraint=eastwest;top=0;left=0;right=0;bottom=1;" parent="wbYHn1VK7xFjra4TpRxV-48" vertex="1">
          <mxGeometry y="30" width="250" height="30" as="geometry" />
        </mxCell>
        <mxCell id="wbYHn1VK7xFjra4TpRxV-50" value="PK" style="shape=partialRectangle;connectable=0;fillColor=none;top=0;left=0;bottom=0;right=0;fontStyle=1;overflow=hidden;whiteSpace=wrap;html=1;" parent="wbYHn1VK7xFjra4TpRxV-49" vertex="1">
          <mxGeometry width="30" height="30" as="geometry">
            <mxRectangle width="30" height="30" as="alternateBounds" />
          </mxGeometry>
        </mxCell>
        <mxCell id="wbYHn1VK7xFjra4TpRxV-51" value="id INT" style="shape=partialRectangle;connectable=0;fillColor=none;top=0;left=0;bottom=0;right=0;align=left;spacingLeft=6;fontStyle=5;overflow=hidden;whiteSpace=wrap;html=1;" parent="wbYHn1VK7xFjra4TpRxV-49" vertex="1">
          <mxGeometry x="30" width="220" height="30" as="geometry">
            <mxRectangle width="220" height="30" as="alternateBounds" />
          </mxGeometry>
        </mxCell>
        <mxCell id="wbYHn1VK7xFjra4TpRxV-52" value="" style="shape=tableRow;horizontal=0;startSize=0;swimlaneHead=0;swimlaneBody=0;fillColor=none;collapsible=0;dropTarget=0;points=[[0,0.5],[1,0.5]];portConstraint=eastwest;top=0;left=0;right=0;bottom=0;" parent="wbYHn1VK7xFjra4TpRxV-48" vertex="1">
          <mxGeometry y="60" width="250" height="30" as="geometry" />
        </mxCell>
        <mxCell id="wbYHn1VK7xFjra4TpRxV-53" value="FK" style="shape=partialRectangle;connectable=0;fillColor=none;top=0;left=0;bottom=0;right=0;editable=1;overflow=hidden;whiteSpace=wrap;html=1;" parent="wbYHn1VK7xFjra4TpRxV-52" vertex="1">
          <mxGeometry width="30" height="30" as="geometry">
            <mxRectangle width="30" height="30" as="alternateBounds" />
          </mxGeometry>
        </mxCell>
        <mxCell id="wbYHn1VK7xFjra4TpRxV-54" value="id_student INT&amp;nbsp;" style="shape=partialRectangle;connectable=0;fillColor=none;top=0;left=0;bottom=0;right=0;align=left;spacingLeft=6;overflow=hidden;whiteSpace=wrap;html=1;" parent="wbYHn1VK7xFjra4TpRxV-52" vertex="1">
          <mxGeometry x="30" width="220" height="30" as="geometry">
            <mxRectangle width="220" height="30" as="alternateBounds" />
          </mxGeometry>
        </mxCell>
        <mxCell id="wbYHn1VK7xFjra4TpRxV-55" value="" style="shape=tableRow;horizontal=0;startSize=0;swimlaneHead=0;swimlaneBody=0;fillColor=none;collapsible=0;dropTarget=0;points=[[0,0.5],[1,0.5]];portConstraint=eastwest;top=0;left=0;right=0;bottom=0;" parent="wbYHn1VK7xFjra4TpRxV-48" vertex="1">
          <mxGeometry y="90" width="250" height="30" as="geometry" />
        </mxCell>
        <mxCell id="wbYHn1VK7xFjra4TpRxV-56" value="" style="shape=partialRectangle;connectable=0;fillColor=none;top=0;left=0;bottom=0;right=0;editable=1;overflow=hidden;whiteSpace=wrap;html=1;" parent="wbYHn1VK7xFjra4TpRxV-55" vertex="1">
          <mxGeometry width="30" height="30" as="geometry">
            <mxRectangle width="30" height="30" as="alternateBounds" />
          </mxGeometry>
        </mxCell>
        <mxCell id="wbYHn1VK7xFjra4TpRxV-57" value="date DATE" style="shape=partialRectangle;connectable=0;fillColor=none;top=0;left=0;bottom=0;right=0;align=left;spacingLeft=6;overflow=hidden;whiteSpace=wrap;html=1;" parent="wbYHn1VK7xFjra4TpRxV-55" vertex="1">
          <mxGeometry x="30" width="220" height="30" as="geometry">
            <mxRectangle width="220" height="30" as="alternateBounds" />
          </mxGeometry>
        </mxCell>
        <mxCell id="wbYHn1VK7xFjra4TpRxV-58" value="" style="shape=tableRow;horizontal=0;startSize=0;swimlaneHead=0;swimlaneBody=0;fillColor=none;collapsible=0;dropTarget=0;points=[[0,0.5],[1,0.5]];portConstraint=eastwest;top=0;left=0;right=0;bottom=0;" parent="wbYHn1VK7xFjra4TpRxV-48" vertex="1">
          <mxGeometry y="120" width="250" height="30" as="geometry" />
        </mxCell>
        <mxCell id="wbYHn1VK7xFjra4TpRxV-59" value="" style="shape=partialRectangle;connectable=0;fillColor=none;top=0;left=0;bottom=0;right=0;editable=1;overflow=hidden;whiteSpace=wrap;html=1;" parent="wbYHn1VK7xFjra4TpRxV-58" vertex="1">
          <mxGeometry width="30" height="30" as="geometry">
            <mxRectangle width="30" height="30" as="alternateBounds" />
          </mxGeometry>
        </mxCell>
        <mxCell id="wbYHn1VK7xFjra4TpRxV-60" value="&lt;span style=&quot;border-color: var(--border-color); text-align: center;&quot;&gt;id_status INT&lt;/span&gt;" style="shape=partialRectangle;connectable=0;fillColor=none;top=0;left=0;bottom=0;right=0;align=left;spacingLeft=6;overflow=hidden;whiteSpace=wrap;html=1;" parent="wbYHn1VK7xFjra4TpRxV-58" vertex="1">
          <mxGeometry x="30" width="220" height="30" as="geometry">
            <mxRectangle width="220" height="30" as="alternateBounds" />
          </mxGeometry>
        </mxCell>
        <mxCell id="wbYHn1VK7xFjra4TpRxV-95" style="shape=tableRow;horizontal=0;startSize=0;swimlaneHead=0;swimlaneBody=0;fillColor=none;collapsible=0;dropTarget=0;points=[[0,0.5],[1,0.5]];portConstraint=eastwest;top=0;left=0;right=0;bottom=0;" parent="wbYHn1VK7xFjra4TpRxV-48" vertex="1">
          <mxGeometry y="150" width="250" height="30" as="geometry" />
        </mxCell>
        <mxCell id="wbYHn1VK7xFjra4TpRxV-96" value="FK" style="shape=partialRectangle;connectable=0;fillColor=none;top=0;left=0;bottom=0;right=0;editable=1;overflow=hidden;whiteSpace=wrap;html=1;" parent="wbYHn1VK7xFjra4TpRxV-95" vertex="1">
          <mxGeometry width="30" height="30" as="geometry">
            <mxRectangle width="30" height="30" as="alternateBounds" />
          </mxGeometry>
        </mxCell>
        <mxCell id="wbYHn1VK7xFjra4TpRxV-97" value="&lt;span style=&quot;border-color: var(--border-color); text-align: center; font-size: 14px;&quot;&gt;id_service&amp;nbsp;&lt;/span&gt;INT" style="shape=partialRectangle;connectable=0;fillColor=none;top=0;left=0;bottom=0;right=0;align=left;spacingLeft=6;overflow=hidden;whiteSpace=wrap;html=1;" parent="wbYHn1VK7xFjra4TpRxV-95" vertex="1">
          <mxGeometry x="30" width="220" height="30" as="geometry">
            <mxRectangle width="220" height="30" as="alternateBounds" />
          </mxGeometry>
        </mxCell>
        <mxCell id="wbYHn1VK7xFjra4TpRxV-64" value="&lt;b style=&quot;border-color: var(--border-color); font-size: 14px;&quot;&gt;service&lt;/b&gt;" style="shape=table;startSize=30;container=1;collapsible=1;childLayout=tableLayout;fixedRows=1;rowLines=0;fontStyle=1;align=center;resizeLast=1;html=1;" parent="1" vertex="1">
          <mxGeometry x="-3230" y="324" width="230" height="180" as="geometry" />
        </mxCell>
        <mxCell id="wbYHn1VK7xFjra4TpRxV-65" value="" style="shape=tableRow;horizontal=0;startSize=0;swimlaneHead=0;swimlaneBody=0;fillColor=none;collapsible=0;dropTarget=0;points=[[0,0.5],[1,0.5]];portConstraint=eastwest;top=0;left=0;right=0;bottom=1;" parent="wbYHn1VK7xFjra4TpRxV-64" vertex="1">
          <mxGeometry y="30" width="230" height="30" as="geometry" />
        </mxCell>
        <mxCell id="wbYHn1VK7xFjra4TpRxV-66" value="PK" style="shape=partialRectangle;connectable=0;fillColor=none;top=0;left=0;bottom=0;right=0;fontStyle=1;overflow=hidden;whiteSpace=wrap;html=1;" parent="wbYHn1VK7xFjra4TpRxV-65" vertex="1">
          <mxGeometry width="30" height="30" as="geometry">
            <mxRectangle width="30" height="30" as="alternateBounds" />
          </mxGeometry>
        </mxCell>
        <mxCell id="wbYHn1VK7xFjra4TpRxV-67" value="id INT" style="shape=partialRectangle;connectable=0;fillColor=none;top=0;left=0;bottom=0;right=0;align=left;spacingLeft=6;fontStyle=5;overflow=hidden;whiteSpace=wrap;html=1;" parent="wbYHn1VK7xFjra4TpRxV-65" vertex="1">
          <mxGeometry x="30" width="200" height="30" as="geometry">
            <mxRectangle width="200" height="30" as="alternateBounds" />
          </mxGeometry>
        </mxCell>
        <mxCell id="wbYHn1VK7xFjra4TpRxV-68" value="" style="shape=tableRow;horizontal=0;startSize=0;swimlaneHead=0;swimlaneBody=0;fillColor=none;collapsible=0;dropTarget=0;points=[[0,0.5],[1,0.5]];portConstraint=eastwest;top=0;left=0;right=0;bottom=0;" parent="wbYHn1VK7xFjra4TpRxV-64" vertex="1">
          <mxGeometry y="60" width="230" height="30" as="geometry" />
        </mxCell>
        <mxCell id="wbYHn1VK7xFjra4TpRxV-69" value="" style="shape=partialRectangle;connectable=0;fillColor=none;top=0;left=0;bottom=0;right=0;editable=1;overflow=hidden;whiteSpace=wrap;html=1;" parent="wbYHn1VK7xFjra4TpRxV-68" vertex="1">
          <mxGeometry width="30" height="30" as="geometry">
            <mxRectangle width="30" height="30" as="alternateBounds" />
          </mxGeometry>
        </mxCell>
        <mxCell id="wbYHn1VK7xFjra4TpRxV-70" value="" style="shape=partialRectangle;connectable=0;fillColor=none;top=0;left=0;bottom=0;right=0;align=left;spacingLeft=6;overflow=hidden;whiteSpace=wrap;html=1;" parent="wbYHn1VK7xFjra4TpRxV-68" vertex="1">
          <mxGeometry x="30" width="200" height="30" as="geometry">
            <mxRectangle width="200" height="30" as="alternateBounds" />
          </mxGeometry>
        </mxCell>
        <mxCell id="h20ETBpenKTShuIACAdk-52" style="shape=tableRow;horizontal=0;startSize=0;swimlaneHead=0;swimlaneBody=0;fillColor=none;collapsible=0;dropTarget=0;points=[[0,0.5],[1,0.5]];portConstraint=eastwest;top=0;left=0;right=0;bottom=0;" parent="wbYHn1VK7xFjra4TpRxV-64" vertex="1">
          <mxGeometry y="90" width="230" height="30" as="geometry" />
        </mxCell>
        <mxCell id="h20ETBpenKTShuIACAdk-53" style="shape=partialRectangle;connectable=0;fillColor=none;top=0;left=0;bottom=0;right=0;editable=1;overflow=hidden;whiteSpace=wrap;html=1;" parent="h20ETBpenKTShuIACAdk-52" vertex="1">
          <mxGeometry width="30" height="30" as="geometry">
            <mxRectangle width="30" height="30" as="alternateBounds" />
          </mxGeometry>
        </mxCell>
        <mxCell id="h20ETBpenKTShuIACAdk-54" value="&lt;div&gt;title VARCHAR(30)&lt;br&gt;&lt;/div&gt;" style="shape=partialRectangle;connectable=0;fillColor=none;top=0;left=0;bottom=0;right=0;align=left;spacingLeft=6;overflow=hidden;whiteSpace=wrap;html=1;" parent="h20ETBpenKTShuIACAdk-52" vertex="1">
          <mxGeometry x="30" width="200" height="30" as="geometry">
            <mxRectangle width="200" height="30" as="alternateBounds" />
          </mxGeometry>
        </mxCell>
        <mxCell id="h20ETBpenKTShuIACAdk-55" style="shape=tableRow;horizontal=0;startSize=0;swimlaneHead=0;swimlaneBody=0;fillColor=none;collapsible=0;dropTarget=0;points=[[0,0.5],[1,0.5]];portConstraint=eastwest;top=0;left=0;right=0;bottom=0;" parent="wbYHn1VK7xFjra4TpRxV-64" vertex="1">
          <mxGeometry y="120" width="230" height="30" as="geometry" />
        </mxCell>
        <mxCell id="h20ETBpenKTShuIACAdk-56" style="shape=partialRectangle;connectable=0;fillColor=none;top=0;left=0;bottom=0;right=0;editable=1;overflow=hidden;whiteSpace=wrap;html=1;" parent="h20ETBpenKTShuIACAdk-55" vertex="1">
          <mxGeometry width="30" height="30" as="geometry">
            <mxRectangle width="30" height="30" as="alternateBounds" />
          </mxGeometry>
        </mxCell>
        <mxCell id="h20ETBpenKTShuIACAdk-57" value="&lt;br&gt;&lt;div style=&quot;border-color: var(--border-color);&quot;&gt;description TEXT&lt;/div&gt;&lt;div style=&quot;border-color: var(--border-color);&quot;&gt;&lt;br style=&quot;border-color: var(--border-color);&quot;&gt;&lt;/div&gt;" style="shape=partialRectangle;connectable=0;fillColor=none;top=0;left=0;bottom=0;right=0;align=left;spacingLeft=6;overflow=hidden;whiteSpace=wrap;html=1;" parent="h20ETBpenKTShuIACAdk-55" vertex="1">
          <mxGeometry x="30" width="200" height="30" as="geometry">
            <mxRectangle width="200" height="30" as="alternateBounds" />
          </mxGeometry>
        </mxCell>
        <mxCell id="wbYHn1VK7xFjra4TpRxV-71" value="" style="shape=tableRow;horizontal=0;startSize=0;swimlaneHead=0;swimlaneBody=0;fillColor=none;collapsible=0;dropTarget=0;points=[[0,0.5],[1,0.5]];portConstraint=eastwest;top=0;left=0;right=0;bottom=0;" parent="wbYHn1VK7xFjra4TpRxV-64" vertex="1">
          <mxGeometry y="150" width="230" height="30" as="geometry" />
        </mxCell>
        <mxCell id="wbYHn1VK7xFjra4TpRxV-72" value="" style="shape=partialRectangle;connectable=0;fillColor=none;top=0;left=0;bottom=0;right=0;editable=1;overflow=hidden;whiteSpace=wrap;html=1;" parent="wbYHn1VK7xFjra4TpRxV-71" vertex="1">
          <mxGeometry width="30" height="30" as="geometry">
            <mxRectangle width="30" height="30" as="alternateBounds" />
          </mxGeometry>
        </mxCell>
        <mxCell id="wbYHn1VK7xFjra4TpRxV-73" value="" style="shape=partialRectangle;connectable=0;fillColor=none;top=0;left=0;bottom=0;right=0;align=left;spacingLeft=6;overflow=hidden;whiteSpace=wrap;html=1;" parent="wbYHn1VK7xFjra4TpRxV-71" vertex="1">
          <mxGeometry x="30" width="200" height="30" as="geometry">
            <mxRectangle width="200" height="30" as="alternateBounds" />
          </mxGeometry>
        </mxCell>
        <mxCell id="wbYHn1VK7xFjra4TpRxV-98" value="" style="endArrow=none;html=1;rounded=0;exitX=1;exitY=0.5;exitDx=0;exitDy=0;entryX=0;entryY=0.5;entryDx=0;entryDy=0;" parent="1" source="wbYHn1VK7xFjra4TpRxV-65" target="wbYHn1VK7xFjra4TpRxV-95" edge="1">
          <mxGeometry relative="1" as="geometry">
            <mxPoint x="-2880" y="444" as="sourcePoint" />
            <mxPoint x="-2720" y="444" as="targetPoint" />
            <Array as="points">
              <mxPoint x="-2930" y="369" />
              <mxPoint x="-2930" y="319" />
            </Array>
          </mxGeometry>
        </mxCell>
        <mxCell id="wbYHn1VK7xFjra4TpRxV-100" value="1" style="edgeLabel;html=1;align=center;verticalAlign=middle;resizable=0;points=[];" parent="wbYHn1VK7xFjra4TpRxV-98" vertex="1" connectable="0">
          <mxGeometry x="-0.8714" y="-2" relative="1" as="geometry">
            <mxPoint as="offset" />
          </mxGeometry>
        </mxCell>
        <mxCell id="wbYHn1VK7xFjra4TpRxV-101" value="M" style="edgeLabel;html=1;align=center;verticalAlign=middle;resizable=0;points=[];" parent="wbYHn1VK7xFjra4TpRxV-98" vertex="1" connectable="0">
          <mxGeometry x="0.7743" y="-3" relative="1" as="geometry">
            <mxPoint as="offset" />
          </mxGeometry>
        </mxCell>
        <mxCell id="7wBGHGDMTLEawep4TFia-82" value="M" style="edgeLabel;html=1;align=center;verticalAlign=middle;resizable=0;points=[];" parent="wbYHn1VK7xFjra4TpRxV-98" vertex="1" connectable="0">
          <mxGeometry x="0.7743" y="-3" relative="1" as="geometry">
            <mxPoint x="2" y="-32" as="offset" />
          </mxGeometry>
        </mxCell>
        <mxCell id="7wBGHGDMTLEawep4TFia-83" value="1" style="edgeLabel;html=1;align=center;verticalAlign=middle;resizable=0;points=[];" parent="wbYHn1VK7xFjra4TpRxV-98" vertex="1" connectable="0">
          <mxGeometry x="-0.8714" y="-2" relative="1" as="geometry">
            <mxPoint x="10" y="-111" as="offset" />
          </mxGeometry>
        </mxCell>
        <mxCell id="wbYHn1VK7xFjra4TpRxV-102" value="&lt;b style=&quot;border-color: var(--border-color);&quot;&gt;&lt;font style=&quot;border-color: var(--border-color); font-size: 14px;&quot;&gt;dormitorie&lt;/font&gt;&lt;/b&gt;" style="shape=table;startSize=30;container=1;collapsible=1;childLayout=tableLayout;fixedRows=1;rowLines=0;fontStyle=1;align=center;resizeLast=1;html=1;" parent="1" vertex="1">
          <mxGeometry x="-1760" y="350" width="227" height="150" as="geometry" />
        </mxCell>
        <mxCell id="wbYHn1VK7xFjra4TpRxV-103" value="" style="shape=tableRow;horizontal=0;startSize=0;swimlaneHead=0;swimlaneBody=0;fillColor=none;collapsible=0;dropTarget=0;points=[[0,0.5],[1,0.5]];portConstraint=eastwest;top=0;left=0;right=0;bottom=1;" parent="wbYHn1VK7xFjra4TpRxV-102" vertex="1">
          <mxGeometry y="30" width="227" height="30" as="geometry" />
        </mxCell>
        <mxCell id="wbYHn1VK7xFjra4TpRxV-104" value="PK" style="shape=partialRectangle;connectable=0;fillColor=none;top=0;left=0;bottom=0;right=0;fontStyle=1;overflow=hidden;whiteSpace=wrap;html=1;" parent="wbYHn1VK7xFjra4TpRxV-103" vertex="1">
          <mxGeometry width="30" height="30" as="geometry">
            <mxRectangle width="30" height="30" as="alternateBounds" />
          </mxGeometry>
        </mxCell>
        <mxCell id="wbYHn1VK7xFjra4TpRxV-105" value="id INT" style="shape=partialRectangle;connectable=0;fillColor=none;top=0;left=0;bottom=0;right=0;align=left;spacingLeft=6;fontStyle=5;overflow=hidden;whiteSpace=wrap;html=1;" parent="wbYHn1VK7xFjra4TpRxV-103" vertex="1">
          <mxGeometry x="30" width="197" height="30" as="geometry">
            <mxRectangle width="197" height="30" as="alternateBounds" />
          </mxGeometry>
        </mxCell>
        <mxCell id="wbYHn1VK7xFjra4TpRxV-106" value="" style="shape=tableRow;horizontal=0;startSize=0;swimlaneHead=0;swimlaneBody=0;fillColor=none;collapsible=0;dropTarget=0;points=[[0,0.5],[1,0.5]];portConstraint=eastwest;top=0;left=0;right=0;bottom=0;" parent="wbYHn1VK7xFjra4TpRxV-102" vertex="1">
          <mxGeometry y="60" width="227" height="30" as="geometry" />
        </mxCell>
        <mxCell id="wbYHn1VK7xFjra4TpRxV-107" value="" style="shape=partialRectangle;connectable=0;fillColor=none;top=0;left=0;bottom=0;right=0;editable=1;overflow=hidden;whiteSpace=wrap;html=1;" parent="wbYHn1VK7xFjra4TpRxV-106" vertex="1">
          <mxGeometry width="30" height="30" as="geometry">
            <mxRectangle width="30" height="30" as="alternateBounds" />
          </mxGeometry>
        </mxCell>
        <mxCell id="wbYHn1VK7xFjra4TpRxV-108" value="number INT(2)" style="shape=partialRectangle;connectable=0;fillColor=none;top=0;left=0;bottom=0;right=0;align=left;spacingLeft=6;overflow=hidden;whiteSpace=wrap;html=1;" parent="wbYHn1VK7xFjra4TpRxV-106" vertex="1">
          <mxGeometry x="30" width="197" height="30" as="geometry">
            <mxRectangle width="197" height="30" as="alternateBounds" />
          </mxGeometry>
        </mxCell>
        <mxCell id="wbYHn1VK7xFjra4TpRxV-109" value="" style="shape=tableRow;horizontal=0;startSize=0;swimlaneHead=0;swimlaneBody=0;fillColor=none;collapsible=0;dropTarget=0;points=[[0,0.5],[1,0.5]];portConstraint=eastwest;top=0;left=0;right=0;bottom=0;" parent="wbYHn1VK7xFjra4TpRxV-102" vertex="1">
          <mxGeometry y="90" width="227" height="30" as="geometry" />
        </mxCell>
        <mxCell id="wbYHn1VK7xFjra4TpRxV-110" value="" style="shape=partialRectangle;connectable=0;fillColor=none;top=0;left=0;bottom=0;right=0;editable=1;overflow=hidden;whiteSpace=wrap;html=1;" parent="wbYHn1VK7xFjra4TpRxV-109" vertex="1">
          <mxGeometry width="30" height="30" as="geometry">
            <mxRectangle width="30" height="30" as="alternateBounds" />
          </mxGeometry>
        </mxCell>
        <mxCell id="wbYHn1VK7xFjra4TpRxV-111" value="address VARCHAR(50)" style="shape=partialRectangle;connectable=0;fillColor=none;top=0;left=0;bottom=0;right=0;align=left;spacingLeft=6;overflow=hidden;whiteSpace=wrap;html=1;" parent="wbYHn1VK7xFjra4TpRxV-109" vertex="1">
          <mxGeometry x="30" width="197" height="30" as="geometry">
            <mxRectangle width="197" height="30" as="alternateBounds" />
          </mxGeometry>
        </mxCell>
        <mxCell id="wbYHn1VK7xFjra4TpRxV-156" style="shape=tableRow;horizontal=0;startSize=0;swimlaneHead=0;swimlaneBody=0;fillColor=none;collapsible=0;dropTarget=0;points=[[0,0.5],[1,0.5]];portConstraint=eastwest;top=0;left=0;right=0;bottom=0;" parent="wbYHn1VK7xFjra4TpRxV-102" vertex="1">
          <mxGeometry y="120" width="227" height="30" as="geometry" />
        </mxCell>
        <mxCell id="wbYHn1VK7xFjra4TpRxV-157" value="FK" style="shape=partialRectangle;connectable=0;fillColor=none;top=0;left=0;bottom=0;right=0;editable=1;overflow=hidden;whiteSpace=wrap;html=1;" parent="wbYHn1VK7xFjra4TpRxV-156" vertex="1">
          <mxGeometry width="30" height="30" as="geometry">
            <mxRectangle width="30" height="30" as="alternateBounds" />
          </mxGeometry>
        </mxCell>
        <mxCell id="wbYHn1VK7xFjra4TpRxV-158" value="&lt;div style=&quot;text-align: center;&quot;&gt;&lt;span style=&quot;background-color: initial;&quot;&gt;id_type_of_dormotories INT&lt;/span&gt;&lt;/div&gt;" style="shape=partialRectangle;connectable=0;fillColor=none;top=0;left=0;bottom=0;right=0;align=left;spacingLeft=6;overflow=hidden;whiteSpace=wrap;html=1;" parent="wbYHn1VK7xFjra4TpRxV-156" vertex="1">
          <mxGeometry x="30" width="197" height="30" as="geometry">
            <mxRectangle width="197" height="30" as="alternateBounds" />
          </mxGeometry>
        </mxCell>
        <mxCell id="wbYHn1VK7xFjra4TpRxV-115" value="&lt;b style=&quot;border-color: var(--border-color); font-size: 14px;&quot;&gt;student&lt;/b&gt;" style="shape=table;startSize=30;container=1;collapsible=1;childLayout=tableLayout;fixedRows=1;rowLines=0;fontStyle=1;align=center;resizeLast=1;html=1;" parent="1" vertex="1">
          <mxGeometry x="-2480" y="150" width="270" height="450" as="geometry" />
        </mxCell>
        <mxCell id="wbYHn1VK7xFjra4TpRxV-116" value="" style="shape=tableRow;horizontal=0;startSize=0;swimlaneHead=0;swimlaneBody=0;fillColor=none;collapsible=0;dropTarget=0;points=[[0,0.5],[1,0.5]];portConstraint=eastwest;top=0;left=0;right=0;bottom=1;" parent="wbYHn1VK7xFjra4TpRxV-115" vertex="1">
          <mxGeometry y="30" width="270" height="30" as="geometry" />
        </mxCell>
        <mxCell id="wbYHn1VK7xFjra4TpRxV-117" value="PK" style="shape=partialRectangle;connectable=0;fillColor=none;top=0;left=0;bottom=0;right=0;fontStyle=1;overflow=hidden;whiteSpace=wrap;html=1;" parent="wbYHn1VK7xFjra4TpRxV-116" vertex="1">
          <mxGeometry width="30" height="30" as="geometry">
            <mxRectangle width="30" height="30" as="alternateBounds" />
          </mxGeometry>
        </mxCell>
        <mxCell id="wbYHn1VK7xFjra4TpRxV-118" value="id INT" style="shape=partialRectangle;connectable=0;fillColor=none;top=0;left=0;bottom=0;right=0;align=left;spacingLeft=6;fontStyle=5;overflow=hidden;whiteSpace=wrap;html=1;" parent="wbYHn1VK7xFjra4TpRxV-116" vertex="1">
          <mxGeometry x="30" width="240" height="30" as="geometry">
            <mxRectangle width="240" height="30" as="alternateBounds" />
          </mxGeometry>
        </mxCell>
        <mxCell id="wbYHn1VK7xFjra4TpRxV-119" value="" style="shape=tableRow;horizontal=0;startSize=0;swimlaneHead=0;swimlaneBody=0;fillColor=none;collapsible=0;dropTarget=0;points=[[0,0.5],[1,0.5]];portConstraint=eastwest;top=0;left=0;right=0;bottom=0;" parent="wbYHn1VK7xFjra4TpRxV-115" vertex="1">
          <mxGeometry y="60" width="270" height="30" as="geometry" />
        </mxCell>
        <mxCell id="wbYHn1VK7xFjra4TpRxV-120" value="" style="shape=partialRectangle;connectable=0;fillColor=none;top=0;left=0;bottom=0;right=0;editable=1;overflow=hidden;whiteSpace=wrap;html=1;" parent="wbYHn1VK7xFjra4TpRxV-119" vertex="1">
          <mxGeometry width="30" height="30" as="geometry">
            <mxRectangle width="30" height="30" as="alternateBounds" />
          </mxGeometry>
        </mxCell>
        <mxCell id="wbYHn1VK7xFjra4TpRxV-121" value="firstName VARCHAR(50)" style="shape=partialRectangle;connectable=0;fillColor=none;top=0;left=0;bottom=0;right=0;align=left;spacingLeft=6;overflow=hidden;whiteSpace=wrap;html=1;" parent="wbYHn1VK7xFjra4TpRxV-119" vertex="1">
          <mxGeometry x="30" width="240" height="30" as="geometry">
            <mxRectangle width="240" height="30" as="alternateBounds" />
          </mxGeometry>
        </mxCell>
        <mxCell id="wbYHn1VK7xFjra4TpRxV-122" value="" style="shape=tableRow;horizontal=0;startSize=0;swimlaneHead=0;swimlaneBody=0;fillColor=none;collapsible=0;dropTarget=0;points=[[0,0.5],[1,0.5]];portConstraint=eastwest;top=0;left=0;right=0;bottom=0;" parent="wbYHn1VK7xFjra4TpRxV-115" vertex="1">
          <mxGeometry y="90" width="270" height="30" as="geometry" />
        </mxCell>
        <mxCell id="wbYHn1VK7xFjra4TpRxV-123" value="" style="shape=partialRectangle;connectable=0;fillColor=none;top=0;left=0;bottom=0;right=0;editable=1;overflow=hidden;whiteSpace=wrap;html=1;" parent="wbYHn1VK7xFjra4TpRxV-122" vertex="1">
          <mxGeometry width="30" height="30" as="geometry">
            <mxRectangle width="30" height="30" as="alternateBounds" />
          </mxGeometry>
        </mxCell>
        <mxCell id="wbYHn1VK7xFjra4TpRxV-124" value="lastname VARCHAR(30)" style="shape=partialRectangle;connectable=0;fillColor=none;top=0;left=0;bottom=0;right=0;align=left;spacingLeft=6;overflow=hidden;whiteSpace=wrap;html=1;" parent="wbYHn1VK7xFjra4TpRxV-122" vertex="1">
          <mxGeometry x="30" width="240" height="30" as="geometry">
            <mxRectangle width="240" height="30" as="alternateBounds" />
          </mxGeometry>
        </mxCell>
        <mxCell id="wbYHn1VK7xFjra4TpRxV-125" value="" style="shape=tableRow;horizontal=0;startSize=0;swimlaneHead=0;swimlaneBody=0;fillColor=none;collapsible=0;dropTarget=0;points=[[0,0.5],[1,0.5]];portConstraint=eastwest;top=0;left=0;right=0;bottom=0;" parent="wbYHn1VK7xFjra4TpRxV-115" vertex="1">
          <mxGeometry y="120" width="270" height="30" as="geometry" />
        </mxCell>
        <mxCell id="wbYHn1VK7xFjra4TpRxV-126" value="" style="shape=partialRectangle;connectable=0;fillColor=none;top=0;left=0;bottom=0;right=0;editable=1;overflow=hidden;whiteSpace=wrap;html=1;" parent="wbYHn1VK7xFjra4TpRxV-125" vertex="1">
          <mxGeometry width="30" height="30" as="geometry">
            <mxRectangle width="30" height="30" as="alternateBounds" />
          </mxGeometry>
        </mxCell>
        <mxCell id="wbYHn1VK7xFjra4TpRxV-127" value="patronymic VARCHAR(30)" style="shape=partialRectangle;connectable=0;fillColor=none;top=0;left=0;bottom=0;right=0;align=left;spacingLeft=6;overflow=hidden;whiteSpace=wrap;html=1;" parent="wbYHn1VK7xFjra4TpRxV-125" vertex="1">
          <mxGeometry x="30" width="240" height="30" as="geometry">
            <mxRectangle width="240" height="30" as="alternateBounds" />
          </mxGeometry>
        </mxCell>
        <mxCell id="wbYHn1VK7xFjra4TpRxV-128" style="shape=tableRow;horizontal=0;startSize=0;swimlaneHead=0;swimlaneBody=0;fillColor=none;collapsible=0;dropTarget=0;points=[[0,0.5],[1,0.5]];portConstraint=eastwest;top=0;left=0;right=0;bottom=0;" parent="wbYHn1VK7xFjra4TpRxV-115" vertex="1">
          <mxGeometry y="150" width="270" height="30" as="geometry" />
        </mxCell>
        <mxCell id="wbYHn1VK7xFjra4TpRxV-129" value="FK" style="shape=partialRectangle;connectable=0;fillColor=none;top=0;left=0;bottom=0;right=0;editable=1;overflow=hidden;whiteSpace=wrap;html=1;" parent="wbYHn1VK7xFjra4TpRxV-128" vertex="1">
          <mxGeometry width="30" height="30" as="geometry">
            <mxRectangle width="30" height="30" as="alternateBounds" />
          </mxGeometry>
        </mxCell>
        <mxCell id="wbYHn1VK7xFjra4TpRxV-130" value="id_room INT&amp;nbsp;" style="shape=partialRectangle;connectable=0;fillColor=none;top=0;left=0;bottom=0;right=0;align=left;spacingLeft=6;overflow=hidden;whiteSpace=wrap;html=1;" parent="wbYHn1VK7xFjra4TpRxV-128" vertex="1">
          <mxGeometry x="30" width="240" height="30" as="geometry">
            <mxRectangle width="240" height="30" as="alternateBounds" />
          </mxGeometry>
        </mxCell>
        <mxCell id="wbYHn1VK7xFjra4TpRxV-134" style="shape=tableRow;horizontal=0;startSize=0;swimlaneHead=0;swimlaneBody=0;fillColor=none;collapsible=0;dropTarget=0;points=[[0,0.5],[1,0.5]];portConstraint=eastwest;top=0;left=0;right=0;bottom=0;" parent="wbYHn1VK7xFjra4TpRxV-115" vertex="1">
          <mxGeometry y="180" width="270" height="30" as="geometry" />
        </mxCell>
        <mxCell id="wbYHn1VK7xFjra4TpRxV-135" style="shape=partialRectangle;connectable=0;fillColor=none;top=0;left=0;bottom=0;right=0;editable=1;overflow=hidden;whiteSpace=wrap;html=1;" parent="wbYHn1VK7xFjra4TpRxV-134" vertex="1">
          <mxGeometry width="30" height="30" as="geometry">
            <mxRectangle width="30" height="30" as="alternateBounds" />
          </mxGeometry>
        </mxCell>
        <mxCell id="wbYHn1VK7xFjra4TpRxV-136" value="phone_number VARCHAR(12)" style="shape=partialRectangle;connectable=0;fillColor=none;top=0;left=0;bottom=0;right=0;align=left;spacingLeft=6;overflow=hidden;whiteSpace=wrap;html=1;" parent="wbYHn1VK7xFjra4TpRxV-134" vertex="1">
          <mxGeometry x="30" width="240" height="30" as="geometry">
            <mxRectangle width="240" height="30" as="alternateBounds" />
          </mxGeometry>
        </mxCell>
        <mxCell id="wbYHn1VK7xFjra4TpRxV-137" style="shape=tableRow;horizontal=0;startSize=0;swimlaneHead=0;swimlaneBody=0;fillColor=none;collapsible=0;dropTarget=0;points=[[0,0.5],[1,0.5]];portConstraint=eastwest;top=0;left=0;right=0;bottom=0;" parent="wbYHn1VK7xFjra4TpRxV-115" vertex="1">
          <mxGeometry y="210" width="270" height="30" as="geometry" />
        </mxCell>
        <mxCell id="wbYHn1VK7xFjra4TpRxV-138" style="shape=partialRectangle;connectable=0;fillColor=none;top=0;left=0;bottom=0;right=0;editable=1;overflow=hidden;whiteSpace=wrap;html=1;" parent="wbYHn1VK7xFjra4TpRxV-137" vertex="1">
          <mxGeometry width="30" height="30" as="geometry">
            <mxRectangle width="30" height="30" as="alternateBounds" />
          </mxGeometry>
        </mxCell>
        <mxCell id="wbYHn1VK7xFjra4TpRxV-139" value="email VARCHAR(50)" style="shape=partialRectangle;connectable=0;fillColor=none;top=0;left=0;bottom=0;right=0;align=left;spacingLeft=6;overflow=hidden;whiteSpace=wrap;html=1;" parent="wbYHn1VK7xFjra4TpRxV-137" vertex="1">
          <mxGeometry x="30" width="240" height="30" as="geometry">
            <mxRectangle width="240" height="30" as="alternateBounds" />
          </mxGeometry>
        </mxCell>
        <mxCell id="wbYHn1VK7xFjra4TpRxV-140" style="shape=tableRow;horizontal=0;startSize=0;swimlaneHead=0;swimlaneBody=0;fillColor=none;collapsible=0;dropTarget=0;points=[[0,0.5],[1,0.5]];portConstraint=eastwest;top=0;left=0;right=0;bottom=0;" parent="wbYHn1VK7xFjra4TpRxV-115" vertex="1">
          <mxGeometry y="240" width="270" height="30" as="geometry" />
        </mxCell>
        <mxCell id="wbYHn1VK7xFjra4TpRxV-141" style="shape=partialRectangle;connectable=0;fillColor=none;top=0;left=0;bottom=0;right=0;editable=1;overflow=hidden;whiteSpace=wrap;html=1;" parent="wbYHn1VK7xFjra4TpRxV-140" vertex="1">
          <mxGeometry width="30" height="30" as="geometry">
            <mxRectangle width="30" height="30" as="alternateBounds" />
          </mxGeometry>
        </mxCell>
        <mxCell id="wbYHn1VK7xFjra4TpRxV-142" value="course_of_study INT(2)" style="shape=partialRectangle;connectable=0;fillColor=none;top=0;left=0;bottom=0;right=0;align=left;spacingLeft=6;overflow=hidden;whiteSpace=wrap;html=1;" parent="wbYHn1VK7xFjra4TpRxV-140" vertex="1">
          <mxGeometry x="30" width="240" height="30" as="geometry">
            <mxRectangle width="240" height="30" as="alternateBounds" />
          </mxGeometry>
        </mxCell>
        <mxCell id="wbYHn1VK7xFjra4TpRxV-144" style="shape=tableRow;horizontal=0;startSize=0;swimlaneHead=0;swimlaneBody=0;fillColor=none;collapsible=0;dropTarget=0;points=[[0,0.5],[1,0.5]];portConstraint=eastwest;top=0;left=0;right=0;bottom=0;" parent="wbYHn1VK7xFjra4TpRxV-115" vertex="1">
          <mxGeometry y="270" width="270" height="30" as="geometry" />
        </mxCell>
        <mxCell id="wbYHn1VK7xFjra4TpRxV-145" value="FK" style="shape=partialRectangle;connectable=0;fillColor=none;top=0;left=0;bottom=0;right=0;editable=1;overflow=hidden;whiteSpace=wrap;html=1;" parent="wbYHn1VK7xFjra4TpRxV-144" vertex="1">
          <mxGeometry width="30" height="30" as="geometry">
            <mxRectangle width="30" height="30" as="alternateBounds" />
          </mxGeometry>
        </mxCell>
        <mxCell id="wbYHn1VK7xFjra4TpRxV-146" value="&lt;div style=&quot;text-align: left;&quot;&gt;id_forms_education&amp;nbsp;&lt;span style=&quot;text-align: center; background-color: initial;&quot;&gt;INT&amp;nbsp;&lt;/span&gt;&lt;/div&gt;" style="shape=partialRectangle;connectable=0;fillColor=none;top=0;left=0;bottom=0;right=0;align=left;spacingLeft=6;overflow=hidden;whiteSpace=wrap;html=1;" parent="wbYHn1VK7xFjra4TpRxV-144" vertex="1">
          <mxGeometry x="30" width="240" height="30" as="geometry">
            <mxRectangle width="240" height="30" as="alternateBounds" />
          </mxGeometry>
        </mxCell>
        <mxCell id="wbYHn1VK7xFjra4TpRxV-147" style="shape=tableRow;horizontal=0;startSize=0;swimlaneHead=0;swimlaneBody=0;fillColor=none;collapsible=0;dropTarget=0;points=[[0,0.5],[1,0.5]];portConstraint=eastwest;top=0;left=0;right=0;bottom=0;" parent="wbYHn1VK7xFjra4TpRxV-115" vertex="1">
          <mxGeometry y="300" width="270" height="30" as="geometry" />
        </mxCell>
        <mxCell id="wbYHn1VK7xFjra4TpRxV-148" style="shape=partialRectangle;connectable=0;fillColor=none;top=0;left=0;bottom=0;right=0;editable=1;overflow=hidden;whiteSpace=wrap;html=1;" parent="wbYHn1VK7xFjra4TpRxV-147" vertex="1">
          <mxGeometry width="30" height="30" as="geometry">
            <mxRectangle width="30" height="30" as="alternateBounds" />
          </mxGeometry>
        </mxCell>
        <mxCell id="wbYHn1VK7xFjra4TpRxV-149" value="login VARCHAR(30)" style="shape=partialRectangle;connectable=0;fillColor=none;top=0;left=0;bottom=0;right=0;align=left;spacingLeft=6;overflow=hidden;whiteSpace=wrap;html=1;" parent="wbYHn1VK7xFjra4TpRxV-147" vertex="1">
          <mxGeometry x="30" width="240" height="30" as="geometry">
            <mxRectangle width="240" height="30" as="alternateBounds" />
          </mxGeometry>
        </mxCell>
        <mxCell id="wbYHn1VK7xFjra4TpRxV-150" style="shape=tableRow;horizontal=0;startSize=0;swimlaneHead=0;swimlaneBody=0;fillColor=none;collapsible=0;dropTarget=0;points=[[0,0.5],[1,0.5]];portConstraint=eastwest;top=0;left=0;right=0;bottom=0;" parent="wbYHn1VK7xFjra4TpRxV-115" vertex="1">
          <mxGeometry y="330" width="270" height="30" as="geometry" />
        </mxCell>
        <mxCell id="wbYHn1VK7xFjra4TpRxV-151" style="shape=partialRectangle;connectable=0;fillColor=none;top=0;left=0;bottom=0;right=0;editable=1;overflow=hidden;whiteSpace=wrap;html=1;" parent="wbYHn1VK7xFjra4TpRxV-150" vertex="1">
          <mxGeometry width="30" height="30" as="geometry">
            <mxRectangle width="30" height="30" as="alternateBounds" />
          </mxGeometry>
        </mxCell>
        <mxCell id="wbYHn1VK7xFjra4TpRxV-152" value="password VARCHAR(30)" style="shape=partialRectangle;connectable=0;fillColor=none;top=0;left=0;bottom=0;right=0;align=left;spacingLeft=6;overflow=hidden;whiteSpace=wrap;html=1;" parent="wbYHn1VK7xFjra4TpRxV-150" vertex="1">
          <mxGeometry x="30" width="240" height="30" as="geometry">
            <mxRectangle width="240" height="30" as="alternateBounds" />
          </mxGeometry>
        </mxCell>
        <mxCell id="_axPaNjUDmBx1OOK9C-v-1" style="shape=tableRow;horizontal=0;startSize=0;swimlaneHead=0;swimlaneBody=0;fillColor=none;collapsible=0;dropTarget=0;points=[[0,0.5],[1,0.5]];portConstraint=eastwest;top=0;left=0;right=0;bottom=0;" vertex="1" parent="wbYHn1VK7xFjra4TpRxV-115">
          <mxGeometry y="360" width="270" height="30" as="geometry" />
        </mxCell>
        <mxCell id="_axPaNjUDmBx1OOK9C-v-2" style="shape=partialRectangle;connectable=0;fillColor=none;top=0;left=0;bottom=0;right=0;editable=1;overflow=hidden;whiteSpace=wrap;html=1;" vertex="1" parent="_axPaNjUDmBx1OOK9C-v-1">
          <mxGeometry width="30" height="30" as="geometry">
            <mxRectangle width="30" height="30" as="alternateBounds" />
          </mxGeometry>
        </mxCell>
        <mxCell id="_axPaNjUDmBx1OOK9C-v-3" value="password VARCHAR(30)" style="shape=partialRectangle;connectable=0;fillColor=none;top=0;left=0;bottom=0;right=0;align=left;spacingLeft=6;overflow=hidden;whiteSpace=wrap;html=1;" vertex="1" parent="_axPaNjUDmBx1OOK9C-v-1">
          <mxGeometry x="30" width="240" height="30" as="geometry">
            <mxRectangle width="240" height="30" as="alternateBounds" />
          </mxGeometry>
        </mxCell>
        <mxCell id="h20ETBpenKTShuIACAdk-33" style="shape=tableRow;horizontal=0;startSize=0;swimlaneHead=0;swimlaneBody=0;fillColor=none;collapsible=0;dropTarget=0;points=[[0,0.5],[1,0.5]];portConstraint=eastwest;top=0;left=0;right=0;bottom=0;" parent="wbYHn1VK7xFjra4TpRxV-115" vertex="1">
          <mxGeometry y="390" width="270" height="30" as="geometry" />
        </mxCell>
        <mxCell id="h20ETBpenKTShuIACAdk-34" style="shape=partialRectangle;connectable=0;fillColor=none;top=0;left=0;bottom=0;right=0;editable=1;overflow=hidden;whiteSpace=wrap;html=1;" parent="h20ETBpenKTShuIACAdk-33" vertex="1">
          <mxGeometry width="30" height="30" as="geometry">
            <mxRectangle width="30" height="30" as="alternateBounds" />
          </mxGeometry>
        </mxCell>
        <mxCell id="h20ETBpenKTShuIACAdk-35" value="check_in_date DATE," style="shape=partialRectangle;connectable=0;fillColor=none;top=0;left=0;bottom=0;right=0;align=left;spacingLeft=6;overflow=hidden;whiteSpace=wrap;html=1;" parent="h20ETBpenKTShuIACAdk-33" vertex="1">
          <mxGeometry x="30" width="240" height="30" as="geometry">
            <mxRectangle width="240" height="30" as="alternateBounds" />
          </mxGeometry>
        </mxCell>
        <mxCell id="h20ETBpenKTShuIACAdk-36" style="shape=tableRow;horizontal=0;startSize=0;swimlaneHead=0;swimlaneBody=0;fillColor=none;collapsible=0;dropTarget=0;points=[[0,0.5],[1,0.5]];portConstraint=eastwest;top=0;left=0;right=0;bottom=0;" parent="wbYHn1VK7xFjra4TpRxV-115" vertex="1">
          <mxGeometry y="420" width="270" height="30" as="geometry" />
        </mxCell>
        <mxCell id="h20ETBpenKTShuIACAdk-37" style="shape=partialRectangle;connectable=0;fillColor=none;top=0;left=0;bottom=0;right=0;editable=1;overflow=hidden;whiteSpace=wrap;html=1;" parent="h20ETBpenKTShuIACAdk-36" vertex="1">
          <mxGeometry width="30" height="30" as="geometry">
            <mxRectangle width="30" height="30" as="alternateBounds" />
          </mxGeometry>
        </mxCell>
        <mxCell id="h20ETBpenKTShuIACAdk-38" value="check_out_date DATE," style="shape=partialRectangle;connectable=0;fillColor=none;top=0;left=0;bottom=0;right=0;align=left;spacingLeft=6;overflow=hidden;whiteSpace=wrap;html=1;" parent="h20ETBpenKTShuIACAdk-36" vertex="1">
          <mxGeometry x="30" width="240" height="30" as="geometry">
            <mxRectangle width="240" height="30" as="alternateBounds" />
          </mxGeometry>
        </mxCell>
        <mxCell id="wbYHn1VK7xFjra4TpRxV-153" value="" style="endArrow=none;html=1;rounded=0;exitX=1;exitY=0.5;exitDx=0;exitDy=0;entryX=0;entryY=0.5;entryDx=0;entryDy=0;" parent="1" source="wbYHn1VK7xFjra4TpRxV-52" target="wbYHn1VK7xFjra4TpRxV-116" edge="1">
          <mxGeometry relative="1" as="geometry">
            <mxPoint x="-2370" y="329" as="sourcePoint" />
            <mxPoint x="-2210" y="329" as="targetPoint" />
            <Array as="points">
              <mxPoint x="-2550" y="229" />
              <mxPoint x="-2550" y="195" />
            </Array>
          </mxGeometry>
        </mxCell>
        <mxCell id="wbYHn1VK7xFjra4TpRxV-154" value="M" style="edgeLabel;html=1;align=center;verticalAlign=middle;resizable=0;points=[];" parent="wbYHn1VK7xFjra4TpRxV-153" vertex="1" connectable="0">
          <mxGeometry x="-0.7708" relative="1" as="geometry">
            <mxPoint as="offset" />
          </mxGeometry>
        </mxCell>
        <mxCell id="wbYHn1VK7xFjra4TpRxV-155" value="1" style="edgeLabel;html=1;align=center;verticalAlign=middle;resizable=0;points=[];" parent="wbYHn1VK7xFjra4TpRxV-153" vertex="1" connectable="0">
          <mxGeometry x="0.7178" relative="1" as="geometry">
            <mxPoint as="offset" />
          </mxGeometry>
        </mxCell>
        <mxCell id="wbYHn1VK7xFjra4TpRxV-159" value="&lt;b style=&quot;border-color: var(--border-color);&quot;&gt;&amp;nbsp;form_education&lt;/b&gt;" style="shape=table;startSize=30;container=1;collapsible=1;childLayout=tableLayout;fixedRows=1;rowLines=0;fontStyle=1;align=center;resizeLast=1;html=1;" parent="1" vertex="1">
          <mxGeometry x="-2820" y="420" width="210" height="120" as="geometry" />
        </mxCell>
        <mxCell id="wbYHn1VK7xFjra4TpRxV-160" value="" style="shape=tableRow;horizontal=0;startSize=0;swimlaneHead=0;swimlaneBody=0;fillColor=none;collapsible=0;dropTarget=0;points=[[0,0.5],[1,0.5]];portConstraint=eastwest;top=0;left=0;right=0;bottom=1;" parent="wbYHn1VK7xFjra4TpRxV-159" vertex="1">
          <mxGeometry y="30" width="210" height="30" as="geometry" />
        </mxCell>
        <mxCell id="wbYHn1VK7xFjra4TpRxV-161" value="PK" style="shape=partialRectangle;connectable=0;fillColor=none;top=0;left=0;bottom=0;right=0;fontStyle=1;overflow=hidden;whiteSpace=wrap;html=1;" parent="wbYHn1VK7xFjra4TpRxV-160" vertex="1">
          <mxGeometry width="30" height="30" as="geometry">
            <mxRectangle width="30" height="30" as="alternateBounds" />
          </mxGeometry>
        </mxCell>
        <mxCell id="wbYHn1VK7xFjra4TpRxV-162" value="id INT" style="shape=partialRectangle;connectable=0;fillColor=none;top=0;left=0;bottom=0;right=0;align=left;spacingLeft=6;fontStyle=5;overflow=hidden;whiteSpace=wrap;html=1;" parent="wbYHn1VK7xFjra4TpRxV-160" vertex="1">
          <mxGeometry x="30" width="180" height="30" as="geometry">
            <mxRectangle width="180" height="30" as="alternateBounds" />
          </mxGeometry>
        </mxCell>
        <mxCell id="wbYHn1VK7xFjra4TpRxV-163" value="" style="shape=tableRow;horizontal=0;startSize=0;swimlaneHead=0;swimlaneBody=0;fillColor=none;collapsible=0;dropTarget=0;points=[[0,0.5],[1,0.5]];portConstraint=eastwest;top=0;left=0;right=0;bottom=0;" parent="wbYHn1VK7xFjra4TpRxV-159" vertex="1">
          <mxGeometry y="60" width="210" height="30" as="geometry" />
        </mxCell>
        <mxCell id="wbYHn1VK7xFjra4TpRxV-164" value="" style="shape=partialRectangle;connectable=0;fillColor=none;top=0;left=0;bottom=0;right=0;editable=1;overflow=hidden;whiteSpace=wrap;html=1;" parent="wbYHn1VK7xFjra4TpRxV-163" vertex="1">
          <mxGeometry width="30" height="30" as="geometry">
            <mxRectangle width="30" height="30" as="alternateBounds" />
          </mxGeometry>
        </mxCell>
        <mxCell id="wbYHn1VK7xFjra4TpRxV-165" value="title VARCHAR(50)" style="shape=partialRectangle;connectable=0;fillColor=none;top=0;left=0;bottom=0;right=0;align=left;spacingLeft=6;overflow=hidden;whiteSpace=wrap;html=1;" parent="wbYHn1VK7xFjra4TpRxV-163" vertex="1">
          <mxGeometry x="30" width="180" height="30" as="geometry">
            <mxRectangle width="180" height="30" as="alternateBounds" />
          </mxGeometry>
        </mxCell>
        <mxCell id="wbYHn1VK7xFjra4TpRxV-166" value="" style="shape=tableRow;horizontal=0;startSize=0;swimlaneHead=0;swimlaneBody=0;fillColor=none;collapsible=0;dropTarget=0;points=[[0,0.5],[1,0.5]];portConstraint=eastwest;top=0;left=0;right=0;bottom=0;" parent="wbYHn1VK7xFjra4TpRxV-159" vertex="1">
          <mxGeometry y="90" width="210" height="30" as="geometry" />
        </mxCell>
        <mxCell id="wbYHn1VK7xFjra4TpRxV-167" value="" style="shape=partialRectangle;connectable=0;fillColor=none;top=0;left=0;bottom=0;right=0;editable=1;overflow=hidden;whiteSpace=wrap;html=1;" parent="wbYHn1VK7xFjra4TpRxV-166" vertex="1">
          <mxGeometry width="30" height="30" as="geometry">
            <mxRectangle width="30" height="30" as="alternateBounds" />
          </mxGeometry>
        </mxCell>
        <mxCell id="wbYHn1VK7xFjra4TpRxV-168" value="years_of_education INT(2)" style="shape=partialRectangle;connectable=0;fillColor=none;top=0;left=0;bottom=0;right=0;align=left;spacingLeft=6;overflow=hidden;whiteSpace=wrap;html=1;" parent="wbYHn1VK7xFjra4TpRxV-166" vertex="1">
          <mxGeometry x="30" width="180" height="30" as="geometry">
            <mxRectangle width="180" height="30" as="alternateBounds" />
          </mxGeometry>
        </mxCell>
        <mxCell id="wbYHn1VK7xFjra4TpRxV-189" value="&lt;b style=&quot;border-color: var(--border-color); font-size: 14px;&quot;&gt;employment&lt;/b&gt;" style="shape=table;startSize=30;container=1;collapsible=1;childLayout=tableLayout;fixedRows=1;rowLines=0;fontStyle=1;align=center;resizeLast=1;html=1;" parent="1" vertex="1">
          <mxGeometry x="-3240" y="810" width="180" height="90" as="geometry" />
        </mxCell>
        <mxCell id="wbYHn1VK7xFjra4TpRxV-190" value="" style="shape=tableRow;horizontal=0;startSize=0;swimlaneHead=0;swimlaneBody=0;fillColor=none;collapsible=0;dropTarget=0;points=[[0,0.5],[1,0.5]];portConstraint=eastwest;top=0;left=0;right=0;bottom=1;" parent="wbYHn1VK7xFjra4TpRxV-189" vertex="1">
          <mxGeometry y="30" width="180" height="30" as="geometry" />
        </mxCell>
        <mxCell id="wbYHn1VK7xFjra4TpRxV-191" value="PK" style="shape=partialRectangle;connectable=0;fillColor=none;top=0;left=0;bottom=0;right=0;fontStyle=1;overflow=hidden;whiteSpace=wrap;html=1;" parent="wbYHn1VK7xFjra4TpRxV-190" vertex="1">
          <mxGeometry width="30" height="30" as="geometry">
            <mxRectangle width="30" height="30" as="alternateBounds" />
          </mxGeometry>
        </mxCell>
        <mxCell id="wbYHn1VK7xFjra4TpRxV-192" value="id INT" style="shape=partialRectangle;connectable=0;fillColor=none;top=0;left=0;bottom=0;right=0;align=left;spacingLeft=6;fontStyle=5;overflow=hidden;whiteSpace=wrap;html=1;" parent="wbYHn1VK7xFjra4TpRxV-190" vertex="1">
          <mxGeometry x="30" width="150" height="30" as="geometry">
            <mxRectangle width="150" height="30" as="alternateBounds" />
          </mxGeometry>
        </mxCell>
        <mxCell id="wbYHn1VK7xFjra4TpRxV-193" value="" style="shape=tableRow;horizontal=0;startSize=0;swimlaneHead=0;swimlaneBody=0;fillColor=none;collapsible=0;dropTarget=0;points=[[0,0.5],[1,0.5]];portConstraint=eastwest;top=0;left=0;right=0;bottom=0;" parent="wbYHn1VK7xFjra4TpRxV-189" vertex="1">
          <mxGeometry y="60" width="180" height="30" as="geometry" />
        </mxCell>
        <mxCell id="wbYHn1VK7xFjra4TpRxV-194" value="" style="shape=partialRectangle;connectable=0;fillColor=none;top=0;left=0;bottom=0;right=0;editable=1;overflow=hidden;whiteSpace=wrap;html=1;" parent="wbYHn1VK7xFjra4TpRxV-193" vertex="1">
          <mxGeometry width="30" height="30" as="geometry">
            <mxRectangle width="30" height="30" as="alternateBounds" />
          </mxGeometry>
        </mxCell>
        <mxCell id="wbYHn1VK7xFjra4TpRxV-195" value="title VARCHAR(30)" style="shape=partialRectangle;connectable=0;fillColor=none;top=0;left=0;bottom=0;right=0;align=left;spacingLeft=6;overflow=hidden;whiteSpace=wrap;html=1;" parent="wbYHn1VK7xFjra4TpRxV-193" vertex="1">
          <mxGeometry x="30" width="150" height="30" as="geometry">
            <mxRectangle width="150" height="30" as="alternateBounds" />
          </mxGeometry>
        </mxCell>
        <mxCell id="wbYHn1VK7xFjra4TpRxV-202" value="employee" style="shape=table;startSize=30;container=1;collapsible=1;childLayout=tableLayout;fixedRows=1;rowLines=0;fontStyle=1;align=center;resizeLast=1;html=1;" parent="1" vertex="1">
          <mxGeometry x="-3240" y="519" width="250" height="241" as="geometry" />
        </mxCell>
        <mxCell id="wbYHn1VK7xFjra4TpRxV-203" value="" style="shape=tableRow;horizontal=0;startSize=0;swimlaneHead=0;swimlaneBody=0;fillColor=none;collapsible=0;dropTarget=0;points=[[0,0.5],[1,0.5]];portConstraint=eastwest;top=0;left=0;right=0;bottom=1;" parent="wbYHn1VK7xFjra4TpRxV-202" vertex="1">
          <mxGeometry y="30" width="250" height="30" as="geometry" />
        </mxCell>
        <mxCell id="wbYHn1VK7xFjra4TpRxV-204" value="PK" style="shape=partialRectangle;connectable=0;fillColor=none;top=0;left=0;bottom=0;right=0;fontStyle=1;overflow=hidden;whiteSpace=wrap;html=1;" parent="wbYHn1VK7xFjra4TpRxV-203" vertex="1">
          <mxGeometry width="30" height="30" as="geometry">
            <mxRectangle width="30" height="30" as="alternateBounds" />
          </mxGeometry>
        </mxCell>
        <mxCell id="wbYHn1VK7xFjra4TpRxV-205" value="id INT" style="shape=partialRectangle;connectable=0;fillColor=none;top=0;left=0;bottom=0;right=0;align=left;spacingLeft=6;fontStyle=5;overflow=hidden;whiteSpace=wrap;html=1;" parent="wbYHn1VK7xFjra4TpRxV-203" vertex="1">
          <mxGeometry x="30" width="220" height="30" as="geometry">
            <mxRectangle width="220" height="30" as="alternateBounds" />
          </mxGeometry>
        </mxCell>
        <mxCell id="wbYHn1VK7xFjra4TpRxV-206" value="" style="shape=tableRow;horizontal=0;startSize=0;swimlaneHead=0;swimlaneBody=0;fillColor=none;collapsible=0;dropTarget=0;points=[[0,0.5],[1,0.5]];portConstraint=eastwest;top=0;left=0;right=0;bottom=0;" parent="wbYHn1VK7xFjra4TpRxV-202" vertex="1">
          <mxGeometry y="60" width="250" height="30" as="geometry" />
        </mxCell>
        <mxCell id="wbYHn1VK7xFjra4TpRxV-207" value="" style="shape=partialRectangle;connectable=0;fillColor=none;top=0;left=0;bottom=0;right=0;editable=1;overflow=hidden;whiteSpace=wrap;html=1;" parent="wbYHn1VK7xFjra4TpRxV-206" vertex="1">
          <mxGeometry width="30" height="30" as="geometry">
            <mxRectangle width="30" height="30" as="alternateBounds" />
          </mxGeometry>
        </mxCell>
        <mxCell id="wbYHn1VK7xFjra4TpRxV-208" value="firstName VARCHAR(30)" style="shape=partialRectangle;connectable=0;fillColor=none;top=0;left=0;bottom=0;right=0;align=left;spacingLeft=6;overflow=hidden;whiteSpace=wrap;html=1;" parent="wbYHn1VK7xFjra4TpRxV-206" vertex="1">
          <mxGeometry x="30" width="220" height="30" as="geometry">
            <mxRectangle width="220" height="30" as="alternateBounds" />
          </mxGeometry>
        </mxCell>
        <mxCell id="wbYHn1VK7xFjra4TpRxV-209" value="" style="shape=tableRow;horizontal=0;startSize=0;swimlaneHead=0;swimlaneBody=0;fillColor=none;collapsible=0;dropTarget=0;points=[[0,0.5],[1,0.5]];portConstraint=eastwest;top=0;left=0;right=0;bottom=0;" parent="wbYHn1VK7xFjra4TpRxV-202" vertex="1">
          <mxGeometry y="90" width="250" height="30" as="geometry" />
        </mxCell>
        <mxCell id="wbYHn1VK7xFjra4TpRxV-210" value="" style="shape=partialRectangle;connectable=0;fillColor=none;top=0;left=0;bottom=0;right=0;editable=1;overflow=hidden;whiteSpace=wrap;html=1;" parent="wbYHn1VK7xFjra4TpRxV-209" vertex="1">
          <mxGeometry width="30" height="30" as="geometry">
            <mxRectangle width="30" height="30" as="alternateBounds" />
          </mxGeometry>
        </mxCell>
        <mxCell id="wbYHn1VK7xFjra4TpRxV-211" value="lastName VARCHAR(30)" style="shape=partialRectangle;connectable=0;fillColor=none;top=0;left=0;bottom=0;right=0;align=left;spacingLeft=6;overflow=hidden;whiteSpace=wrap;html=1;" parent="wbYHn1VK7xFjra4TpRxV-209" vertex="1">
          <mxGeometry x="30" width="220" height="30" as="geometry">
            <mxRectangle width="220" height="30" as="alternateBounds" />
          </mxGeometry>
        </mxCell>
        <mxCell id="wbYHn1VK7xFjra4TpRxV-212" value="" style="shape=tableRow;horizontal=0;startSize=0;swimlaneHead=0;swimlaneBody=0;fillColor=none;collapsible=0;dropTarget=0;points=[[0,0.5],[1,0.5]];portConstraint=eastwest;top=0;left=0;right=0;bottom=0;" parent="wbYHn1VK7xFjra4TpRxV-202" vertex="1">
          <mxGeometry y="120" width="250" height="30" as="geometry" />
        </mxCell>
        <mxCell id="wbYHn1VK7xFjra4TpRxV-213" value="" style="shape=partialRectangle;connectable=0;fillColor=none;top=0;left=0;bottom=0;right=0;editable=1;overflow=hidden;whiteSpace=wrap;html=1;" parent="wbYHn1VK7xFjra4TpRxV-212" vertex="1">
          <mxGeometry width="30" height="30" as="geometry">
            <mxRectangle width="30" height="30" as="alternateBounds" />
          </mxGeometry>
        </mxCell>
        <mxCell id="wbYHn1VK7xFjra4TpRxV-214" value="patronymic VARCHAR(30)" style="shape=partialRectangle;connectable=0;fillColor=none;top=0;left=0;bottom=0;right=0;align=left;spacingLeft=6;overflow=hidden;whiteSpace=wrap;html=1;" parent="wbYHn1VK7xFjra4TpRxV-212" vertex="1">
          <mxGeometry x="30" width="220" height="30" as="geometry">
            <mxRectangle width="220" height="30" as="alternateBounds" />
          </mxGeometry>
        </mxCell>
        <mxCell id="wbYHn1VK7xFjra4TpRxV-215" style="shape=tableRow;horizontal=0;startSize=0;swimlaneHead=0;swimlaneBody=0;fillColor=none;collapsible=0;dropTarget=0;points=[[0,0.5],[1,0.5]];portConstraint=eastwest;top=0;left=0;right=0;bottom=0;" parent="wbYHn1VK7xFjra4TpRxV-202" vertex="1">
          <mxGeometry y="150" width="250" height="30" as="geometry" />
        </mxCell>
        <mxCell id="wbYHn1VK7xFjra4TpRxV-216" value="FK" style="shape=partialRectangle;connectable=0;fillColor=none;top=0;left=0;bottom=0;right=0;editable=1;overflow=hidden;whiteSpace=wrap;html=1;" parent="wbYHn1VK7xFjra4TpRxV-215" vertex="1">
          <mxGeometry width="30" height="30" as="geometry">
            <mxRectangle width="30" height="30" as="alternateBounds" />
          </mxGeometry>
        </mxCell>
        <mxCell id="wbYHn1VK7xFjra4TpRxV-217" value="id_employment INT" style="shape=partialRectangle;connectable=0;fillColor=none;top=0;left=0;bottom=0;right=0;align=left;spacingLeft=6;overflow=hidden;whiteSpace=wrap;html=1;" parent="wbYHn1VK7xFjra4TpRxV-215" vertex="1">
          <mxGeometry x="30" width="220" height="30" as="geometry">
            <mxRectangle width="220" height="30" as="alternateBounds" />
          </mxGeometry>
        </mxCell>
        <mxCell id="wbYHn1VK7xFjra4TpRxV-218" style="shape=tableRow;horizontal=0;startSize=0;swimlaneHead=0;swimlaneBody=0;fillColor=none;collapsible=0;dropTarget=0;points=[[0,0.5],[1,0.5]];portConstraint=eastwest;top=0;left=0;right=0;bottom=0;" parent="wbYHn1VK7xFjra4TpRxV-202" vertex="1">
          <mxGeometry y="180" width="250" height="30" as="geometry" />
        </mxCell>
        <mxCell id="wbYHn1VK7xFjra4TpRxV-219" style="shape=partialRectangle;connectable=0;fillColor=none;top=0;left=0;bottom=0;right=0;editable=1;overflow=hidden;whiteSpace=wrap;html=1;" parent="wbYHn1VK7xFjra4TpRxV-218" vertex="1">
          <mxGeometry width="30" height="30" as="geometry">
            <mxRectangle width="30" height="30" as="alternateBounds" />
          </mxGeometry>
        </mxCell>
        <mxCell id="wbYHn1VK7xFjra4TpRxV-220" value="login VARCHAR(30)" style="shape=partialRectangle;connectable=0;fillColor=none;top=0;left=0;bottom=0;right=0;align=left;spacingLeft=6;overflow=hidden;whiteSpace=wrap;html=1;" parent="wbYHn1VK7xFjra4TpRxV-218" vertex="1">
          <mxGeometry x="30" width="220" height="30" as="geometry">
            <mxRectangle width="220" height="30" as="alternateBounds" />
          </mxGeometry>
        </mxCell>
        <mxCell id="wbYHn1VK7xFjra4TpRxV-221" style="shape=tableRow;horizontal=0;startSize=0;swimlaneHead=0;swimlaneBody=0;fillColor=none;collapsible=0;dropTarget=0;points=[[0,0.5],[1,0.5]];portConstraint=eastwest;top=0;left=0;right=0;bottom=0;" parent="wbYHn1VK7xFjra4TpRxV-202" vertex="1">
          <mxGeometry y="210" width="250" height="30" as="geometry" />
        </mxCell>
        <mxCell id="wbYHn1VK7xFjra4TpRxV-222" style="shape=partialRectangle;connectable=0;fillColor=none;top=0;left=0;bottom=0;right=0;editable=1;overflow=hidden;whiteSpace=wrap;html=1;" parent="wbYHn1VK7xFjra4TpRxV-221" vertex="1">
          <mxGeometry width="30" height="30" as="geometry">
            <mxRectangle width="30" height="30" as="alternateBounds" />
          </mxGeometry>
        </mxCell>
        <mxCell id="wbYHn1VK7xFjra4TpRxV-223" value="password VARCHAR(30)" style="shape=partialRectangle;connectable=0;fillColor=none;top=0;left=0;bottom=0;right=0;align=left;spacingLeft=6;overflow=hidden;whiteSpace=wrap;html=1;" parent="wbYHn1VK7xFjra4TpRxV-221" vertex="1">
          <mxGeometry x="30" width="220" height="30" as="geometry">
            <mxRectangle width="220" height="30" as="alternateBounds" />
          </mxGeometry>
        </mxCell>
        <mxCell id="wbYHn1VK7xFjra4TpRxV-224" value="news" style="shape=table;startSize=30;container=1;collapsible=1;childLayout=tableLayout;fixedRows=1;rowLines=0;fontStyle=1;align=center;resizeLast=1;html=1;" parent="1" vertex="1">
          <mxGeometry x="-2780" y="610" width="258" height="180" as="geometry" />
        </mxCell>
        <mxCell id="wbYHn1VK7xFjra4TpRxV-225" value="" style="shape=tableRow;horizontal=0;startSize=0;swimlaneHead=0;swimlaneBody=0;fillColor=none;collapsible=0;dropTarget=0;points=[[0,0.5],[1,0.5]];portConstraint=eastwest;top=0;left=0;right=0;bottom=1;" parent="wbYHn1VK7xFjra4TpRxV-224" vertex="1">
          <mxGeometry y="30" width="258" height="30" as="geometry" />
        </mxCell>
        <mxCell id="wbYHn1VK7xFjra4TpRxV-226" value="PK" style="shape=partialRectangle;connectable=0;fillColor=none;top=0;left=0;bottom=0;right=0;fontStyle=1;overflow=hidden;whiteSpace=wrap;html=1;" parent="wbYHn1VK7xFjra4TpRxV-225" vertex="1">
          <mxGeometry width="30" height="30" as="geometry">
            <mxRectangle width="30" height="30" as="alternateBounds" />
          </mxGeometry>
        </mxCell>
        <mxCell id="wbYHn1VK7xFjra4TpRxV-227" value="id INT" style="shape=partialRectangle;connectable=0;fillColor=none;top=0;left=0;bottom=0;right=0;align=left;spacingLeft=6;fontStyle=5;overflow=hidden;whiteSpace=wrap;html=1;" parent="wbYHn1VK7xFjra4TpRxV-225" vertex="1">
          <mxGeometry x="30" width="228" height="30" as="geometry">
            <mxRectangle width="228" height="30" as="alternateBounds" />
          </mxGeometry>
        </mxCell>
        <mxCell id="wbYHn1VK7xFjra4TpRxV-228" value="" style="shape=tableRow;horizontal=0;startSize=0;swimlaneHead=0;swimlaneBody=0;fillColor=none;collapsible=0;dropTarget=0;points=[[0,0.5],[1,0.5]];portConstraint=eastwest;top=0;left=0;right=0;bottom=0;" parent="wbYHn1VK7xFjra4TpRxV-224" vertex="1">
          <mxGeometry y="60" width="258" height="30" as="geometry" />
        </mxCell>
        <mxCell id="wbYHn1VK7xFjra4TpRxV-229" value="" style="shape=partialRectangle;connectable=0;fillColor=none;top=0;left=0;bottom=0;right=0;editable=1;overflow=hidden;whiteSpace=wrap;html=1;" parent="wbYHn1VK7xFjra4TpRxV-228" vertex="1">
          <mxGeometry width="30" height="30" as="geometry">
            <mxRectangle width="30" height="30" as="alternateBounds" />
          </mxGeometry>
        </mxCell>
        <mxCell id="wbYHn1VK7xFjra4TpRxV-230" value="author_id INT" style="shape=partialRectangle;connectable=0;fillColor=none;top=0;left=0;bottom=0;right=0;align=left;spacingLeft=6;overflow=hidden;whiteSpace=wrap;html=1;" parent="wbYHn1VK7xFjra4TpRxV-228" vertex="1">
          <mxGeometry x="30" width="228" height="30" as="geometry">
            <mxRectangle width="228" height="30" as="alternateBounds" />
          </mxGeometry>
        </mxCell>
        <mxCell id="wbYHn1VK7xFjra4TpRxV-231" value="" style="shape=tableRow;horizontal=0;startSize=0;swimlaneHead=0;swimlaneBody=0;fillColor=none;collapsible=0;dropTarget=0;points=[[0,0.5],[1,0.5]];portConstraint=eastwest;top=0;left=0;right=0;bottom=0;" parent="wbYHn1VK7xFjra4TpRxV-224" vertex="1">
          <mxGeometry y="90" width="258" height="30" as="geometry" />
        </mxCell>
        <mxCell id="wbYHn1VK7xFjra4TpRxV-232" value="" style="shape=partialRectangle;connectable=0;fillColor=none;top=0;left=0;bottom=0;right=0;editable=1;overflow=hidden;whiteSpace=wrap;html=1;" parent="wbYHn1VK7xFjra4TpRxV-231" vertex="1">
          <mxGeometry width="30" height="30" as="geometry">
            <mxRectangle width="30" height="30" as="alternateBounds" />
          </mxGeometry>
        </mxCell>
        <mxCell id="wbYHn1VK7xFjra4TpRxV-233" value="content&amp;nbsp; TEXT" style="shape=partialRectangle;connectable=0;fillColor=none;top=0;left=0;bottom=0;right=0;align=left;spacingLeft=6;overflow=hidden;whiteSpace=wrap;html=1;" parent="wbYHn1VK7xFjra4TpRxV-231" vertex="1">
          <mxGeometry x="30" width="228" height="30" as="geometry">
            <mxRectangle width="228" height="30" as="alternateBounds" />
          </mxGeometry>
        </mxCell>
        <mxCell id="h20ETBpenKTShuIACAdk-10" style="shape=tableRow;horizontal=0;startSize=0;swimlaneHead=0;swimlaneBody=0;fillColor=none;collapsible=0;dropTarget=0;points=[[0,0.5],[1,0.5]];portConstraint=eastwest;top=0;left=0;right=0;bottom=0;" parent="wbYHn1VK7xFjra4TpRxV-224" vertex="1">
          <mxGeometry y="120" width="258" height="30" as="geometry" />
        </mxCell>
        <mxCell id="h20ETBpenKTShuIACAdk-11" style="shape=partialRectangle;connectable=0;fillColor=none;top=0;left=0;bottom=0;right=0;editable=1;overflow=hidden;whiteSpace=wrap;html=1;" parent="h20ETBpenKTShuIACAdk-10" vertex="1">
          <mxGeometry width="30" height="30" as="geometry">
            <mxRectangle width="30" height="30" as="alternateBounds" />
          </mxGeometry>
        </mxCell>
        <mxCell id="h20ETBpenKTShuIACAdk-12" value="publish_date DATE" style="shape=partialRectangle;connectable=0;fillColor=none;top=0;left=0;bottom=0;right=0;align=left;spacingLeft=6;overflow=hidden;whiteSpace=wrap;html=1;" parent="h20ETBpenKTShuIACAdk-10" vertex="1">
          <mxGeometry x="30" width="228" height="30" as="geometry">
            <mxRectangle width="228" height="30" as="alternateBounds" />
          </mxGeometry>
        </mxCell>
        <mxCell id="h20ETBpenKTShuIACAdk-30" style="shape=tableRow;horizontal=0;startSize=0;swimlaneHead=0;swimlaneBody=0;fillColor=none;collapsible=0;dropTarget=0;points=[[0,0.5],[1,0.5]];portConstraint=eastwest;top=0;left=0;right=0;bottom=0;" parent="wbYHn1VK7xFjra4TpRxV-224" vertex="1">
          <mxGeometry y="150" width="258" height="30" as="geometry" />
        </mxCell>
        <mxCell id="h20ETBpenKTShuIACAdk-31" style="shape=partialRectangle;connectable=0;fillColor=none;top=0;left=0;bottom=0;right=0;editable=1;overflow=hidden;whiteSpace=wrap;html=1;" parent="h20ETBpenKTShuIACAdk-30" vertex="1">
          <mxGeometry width="30" height="30" as="geometry">
            <mxRectangle width="30" height="30" as="alternateBounds" />
          </mxGeometry>
        </mxCell>
        <mxCell id="h20ETBpenKTShuIACAdk-32" value="title VARCHAR(255)" style="shape=partialRectangle;connectable=0;fillColor=none;top=0;left=0;bottom=0;right=0;align=left;spacingLeft=6;overflow=hidden;whiteSpace=wrap;html=1;" parent="h20ETBpenKTShuIACAdk-30" vertex="1">
          <mxGeometry x="30" width="228" height="30" as="geometry">
            <mxRectangle width="228" height="30" as="alternateBounds" />
          </mxGeometry>
        </mxCell>
        <mxCell id="wbYHn1VK7xFjra4TpRxV-237" value="" style="endArrow=none;html=1;rounded=0;entryX=0;entryY=0.5;entryDx=0;entryDy=0;exitX=1;exitY=0.5;exitDx=0;exitDy=0;" parent="1" source="wbYHn1VK7xFjra4TpRxV-160" target="wbYHn1VK7xFjra4TpRxV-144" edge="1">
          <mxGeometry relative="1" as="geometry">
            <mxPoint x="-2710" y="450" as="sourcePoint" />
            <mxPoint x="-2550" y="450" as="targetPoint" />
            <Array as="points">
              <mxPoint x="-2540" y="465" />
              <mxPoint x="-2540" y="435" />
            </Array>
          </mxGeometry>
        </mxCell>
        <mxCell id="h20ETBpenKTShuIACAdk-78" value="1" style="edgeLabel;html=1;align=center;verticalAlign=middle;resizable=0;points=[];" parent="wbYHn1VK7xFjra4TpRxV-237" vertex="1" connectable="0">
          <mxGeometry x="-0.8161" y="1" relative="1" as="geometry">
            <mxPoint as="offset" />
          </mxGeometry>
        </mxCell>
        <mxCell id="h20ETBpenKTShuIACAdk-79" value="1" style="edgeLabel;html=1;align=center;verticalAlign=middle;resizable=0;points=[];" parent="wbYHn1VK7xFjra4TpRxV-237" vertex="1" connectable="0">
          <mxGeometry x="0.6363" y="-1" relative="1" as="geometry">
            <mxPoint as="offset" />
          </mxGeometry>
        </mxCell>
        <mxCell id="h20ETBpenKTShuIACAdk-3" value="" style="endArrow=none;html=1;rounded=0;exitX=0;exitY=0.5;exitDx=0;exitDy=0;entryX=0;entryY=0.5;entryDx=0;entryDy=0;" parent="1" source="wbYHn1VK7xFjra4TpRxV-215" target="wbYHn1VK7xFjra4TpRxV-190" edge="1">
          <mxGeometry relative="1" as="geometry">
            <mxPoint x="-3590" y="480" as="sourcePoint" />
            <mxPoint x="-3430" y="480" as="targetPoint" />
            <Array as="points">
              <mxPoint x="-3270" y="684" />
              <mxPoint x="-3270" y="855" />
            </Array>
          </mxGeometry>
        </mxCell>
        <mxCell id="h20ETBpenKTShuIACAdk-5" value="1" style="edgeLabel;html=1;align=center;verticalAlign=middle;resizable=0;points=[];" parent="h20ETBpenKTShuIACAdk-3" vertex="1" connectable="0">
          <mxGeometry x="0.8613" y="-1" relative="1" as="geometry">
            <mxPoint as="offset" />
          </mxGeometry>
        </mxCell>
        <mxCell id="h20ETBpenKTShuIACAdk-6" value="M" style="edgeLabel;html=1;align=center;verticalAlign=middle;resizable=0;points=[];" parent="h20ETBpenKTShuIACAdk-3" vertex="1" connectable="0">
          <mxGeometry x="-0.8198" y="1" relative="1" as="geometry">
            <mxPoint as="offset" />
          </mxGeometry>
        </mxCell>
        <mxCell id="7wBGHGDMTLEawep4TFia-9" value="M" style="edgeLabel;html=1;align=center;verticalAlign=middle;resizable=0;points=[];" parent="h20ETBpenKTShuIACAdk-3" vertex="1" connectable="0">
          <mxGeometry x="0.8613" y="-1" relative="1" as="geometry">
            <mxPoint x="466" y="-176" as="offset" />
          </mxGeometry>
        </mxCell>
        <mxCell id="h20ETBpenKTShuIACAdk-39" value="room" style="shape=table;startSize=30;container=1;collapsible=1;childLayout=tableLayout;fixedRows=1;rowLines=0;fontStyle=1;align=center;resizeLast=1;html=1;" parent="1" vertex="1">
          <mxGeometry x="-2090" y="354" width="230" height="146" as="geometry" />
        </mxCell>
        <mxCell id="h20ETBpenKTShuIACAdk-40" value="" style="shape=tableRow;horizontal=0;startSize=0;swimlaneHead=0;swimlaneBody=0;fillColor=none;collapsible=0;dropTarget=0;points=[[0,0.5],[1,0.5]];portConstraint=eastwest;top=0;left=0;right=0;bottom=1;" parent="h20ETBpenKTShuIACAdk-39" vertex="1">
          <mxGeometry y="30" width="230" height="30" as="geometry" />
        </mxCell>
        <mxCell id="h20ETBpenKTShuIACAdk-41" value="PK" style="shape=partialRectangle;connectable=0;fillColor=none;top=0;left=0;bottom=0;right=0;fontStyle=1;overflow=hidden;whiteSpace=wrap;html=1;" parent="h20ETBpenKTShuIACAdk-40" vertex="1">
          <mxGeometry width="30" height="30" as="geometry">
            <mxRectangle width="30" height="30" as="alternateBounds" />
          </mxGeometry>
        </mxCell>
        <mxCell id="h20ETBpenKTShuIACAdk-42" value="id INT" style="shape=partialRectangle;connectable=0;fillColor=none;top=0;left=0;bottom=0;right=0;align=left;spacingLeft=6;fontStyle=5;overflow=hidden;whiteSpace=wrap;html=1;" parent="h20ETBpenKTShuIACAdk-40" vertex="1">
          <mxGeometry x="30" width="200" height="30" as="geometry">
            <mxRectangle width="200" height="30" as="alternateBounds" />
          </mxGeometry>
        </mxCell>
        <mxCell id="h20ETBpenKTShuIACAdk-43" value="" style="shape=tableRow;horizontal=0;startSize=0;swimlaneHead=0;swimlaneBody=0;fillColor=none;collapsible=0;dropTarget=0;points=[[0,0.5],[1,0.5]];portConstraint=eastwest;top=0;left=0;right=0;bottom=0;" parent="h20ETBpenKTShuIACAdk-39" vertex="1">
          <mxGeometry y="60" width="230" height="30" as="geometry" />
        </mxCell>
        <mxCell id="h20ETBpenKTShuIACAdk-44" value="" style="shape=partialRectangle;connectable=0;fillColor=none;top=0;left=0;bottom=0;right=0;editable=1;overflow=hidden;whiteSpace=wrap;html=1;" parent="h20ETBpenKTShuIACAdk-43" vertex="1">
          <mxGeometry width="30" height="30" as="geometry">
            <mxRectangle width="30" height="30" as="alternateBounds" />
          </mxGeometry>
        </mxCell>
        <mxCell id="h20ETBpenKTShuIACAdk-45" value="id_type_of_room INT" style="shape=partialRectangle;connectable=0;fillColor=none;top=0;left=0;bottom=0;right=0;align=left;spacingLeft=6;overflow=hidden;whiteSpace=wrap;html=1;" parent="h20ETBpenKTShuIACAdk-43" vertex="1">
          <mxGeometry x="30" width="200" height="30" as="geometry">
            <mxRectangle width="200" height="30" as="alternateBounds" />
          </mxGeometry>
        </mxCell>
        <mxCell id="h20ETBpenKTShuIACAdk-73" style="shape=tableRow;horizontal=0;startSize=0;swimlaneHead=0;swimlaneBody=0;fillColor=none;collapsible=0;dropTarget=0;points=[[0,0.5],[1,0.5]];portConstraint=eastwest;top=0;left=0;right=0;bottom=0;" parent="h20ETBpenKTShuIACAdk-39" vertex="1">
          <mxGeometry y="90" width="230" height="26" as="geometry" />
        </mxCell>
        <mxCell id="h20ETBpenKTShuIACAdk-74" style="shape=partialRectangle;connectable=0;fillColor=none;top=0;left=0;bottom=0;right=0;editable=1;overflow=hidden;whiteSpace=wrap;html=1;" parent="h20ETBpenKTShuIACAdk-73" vertex="1">
          <mxGeometry width="30" height="26" as="geometry">
            <mxRectangle width="30" height="26" as="alternateBounds" />
          </mxGeometry>
        </mxCell>
        <mxCell id="h20ETBpenKTShuIACAdk-75" value="room_number VARCHAR(50)" style="shape=partialRectangle;connectable=0;fillColor=none;top=0;left=0;bottom=0;right=0;align=left;spacingLeft=6;overflow=hidden;whiteSpace=wrap;html=1;" parent="h20ETBpenKTShuIACAdk-73" vertex="1">
          <mxGeometry x="30" width="200" height="26" as="geometry">
            <mxRectangle width="200" height="26" as="alternateBounds" />
          </mxGeometry>
        </mxCell>
        <mxCell id="h20ETBpenKTShuIACAdk-59" value="type_of_room" style="shape=table;startSize=30;container=1;collapsible=1;childLayout=tableLayout;fixedRows=1;rowLines=0;fontStyle=1;align=center;resizeLast=1;html=1;" parent="1" vertex="1">
          <mxGeometry x="-2120" y="550" width="270" height="150" as="geometry" />
        </mxCell>
        <mxCell id="h20ETBpenKTShuIACAdk-60" value="" style="shape=tableRow;horizontal=0;startSize=0;swimlaneHead=0;swimlaneBody=0;fillColor=none;collapsible=0;dropTarget=0;points=[[0,0.5],[1,0.5]];portConstraint=eastwest;top=0;left=0;right=0;bottom=1;" parent="h20ETBpenKTShuIACAdk-59" vertex="1">
          <mxGeometry y="30" width="270" height="30" as="geometry" />
        </mxCell>
        <mxCell id="h20ETBpenKTShuIACAdk-61" value="PK" style="shape=partialRectangle;connectable=0;fillColor=none;top=0;left=0;bottom=0;right=0;fontStyle=1;overflow=hidden;whiteSpace=wrap;html=1;" parent="h20ETBpenKTShuIACAdk-60" vertex="1">
          <mxGeometry width="30" height="30" as="geometry">
            <mxRectangle width="30" height="30" as="alternateBounds" />
          </mxGeometry>
        </mxCell>
        <mxCell id="h20ETBpenKTShuIACAdk-62" value="id INT" style="shape=partialRectangle;connectable=0;fillColor=none;top=0;left=0;bottom=0;right=0;align=left;spacingLeft=6;fontStyle=5;overflow=hidden;whiteSpace=wrap;html=1;" parent="h20ETBpenKTShuIACAdk-60" vertex="1">
          <mxGeometry x="30" width="240" height="30" as="geometry">
            <mxRectangle width="240" height="30" as="alternateBounds" />
          </mxGeometry>
        </mxCell>
        <mxCell id="h20ETBpenKTShuIACAdk-63" value="" style="shape=tableRow;horizontal=0;startSize=0;swimlaneHead=0;swimlaneBody=0;fillColor=none;collapsible=0;dropTarget=0;points=[[0,0.5],[1,0.5]];portConstraint=eastwest;top=0;left=0;right=0;bottom=0;" parent="h20ETBpenKTShuIACAdk-59" vertex="1">
          <mxGeometry y="60" width="270" height="30" as="geometry" />
        </mxCell>
        <mxCell id="h20ETBpenKTShuIACAdk-64" value="" style="shape=partialRectangle;connectable=0;fillColor=none;top=0;left=0;bottom=0;right=0;editable=1;overflow=hidden;whiteSpace=wrap;html=1;" parent="h20ETBpenKTShuIACAdk-63" vertex="1">
          <mxGeometry width="30" height="30" as="geometry">
            <mxRectangle width="30" height="30" as="alternateBounds" />
          </mxGeometry>
        </mxCell>
        <mxCell id="h20ETBpenKTShuIACAdk-65" value="title VARCHAR(30)" style="shape=partialRectangle;connectable=0;fillColor=none;top=0;left=0;bottom=0;right=0;align=left;spacingLeft=6;overflow=hidden;whiteSpace=wrap;html=1;" parent="h20ETBpenKTShuIACAdk-63" vertex="1">
          <mxGeometry x="30" width="240" height="30" as="geometry">
            <mxRectangle width="240" height="30" as="alternateBounds" />
          </mxGeometry>
        </mxCell>
        <mxCell id="h20ETBpenKTShuIACAdk-66" value="" style="shape=tableRow;horizontal=0;startSize=0;swimlaneHead=0;swimlaneBody=0;fillColor=none;collapsible=0;dropTarget=0;points=[[0,0.5],[1,0.5]];portConstraint=eastwest;top=0;left=0;right=0;bottom=0;" parent="h20ETBpenKTShuIACAdk-59" vertex="1">
          <mxGeometry y="90" width="270" height="30" as="geometry" />
        </mxCell>
        <mxCell id="h20ETBpenKTShuIACAdk-67" value="" style="shape=partialRectangle;connectable=0;fillColor=none;top=0;left=0;bottom=0;right=0;editable=1;overflow=hidden;whiteSpace=wrap;html=1;" parent="h20ETBpenKTShuIACAdk-66" vertex="1">
          <mxGeometry width="30" height="30" as="geometry">
            <mxRectangle width="30" height="30" as="alternateBounds" />
          </mxGeometry>
        </mxCell>
        <mxCell id="h20ETBpenKTShuIACAdk-68" value="description TEXT" style="shape=partialRectangle;connectable=0;fillColor=none;top=0;left=0;bottom=0;right=0;align=left;spacingLeft=6;overflow=hidden;whiteSpace=wrap;html=1;" parent="h20ETBpenKTShuIACAdk-66" vertex="1">
          <mxGeometry x="30" width="240" height="30" as="geometry">
            <mxRectangle width="240" height="30" as="alternateBounds" />
          </mxGeometry>
        </mxCell>
        <mxCell id="h20ETBpenKTShuIACAdk-69" value="" style="shape=tableRow;horizontal=0;startSize=0;swimlaneHead=0;swimlaneBody=0;fillColor=none;collapsible=0;dropTarget=0;points=[[0,0.5],[1,0.5]];portConstraint=eastwest;top=0;left=0;right=0;bottom=0;" parent="h20ETBpenKTShuIACAdk-59" vertex="1">
          <mxGeometry y="120" width="270" height="30" as="geometry" />
        </mxCell>
        <mxCell id="h20ETBpenKTShuIACAdk-70" value="" style="shape=partialRectangle;connectable=0;fillColor=none;top=0;left=0;bottom=0;right=0;editable=1;overflow=hidden;whiteSpace=wrap;html=1;" parent="h20ETBpenKTShuIACAdk-69" vertex="1">
          <mxGeometry width="30" height="30" as="geometry">
            <mxRectangle width="30" height="30" as="alternateBounds" />
          </mxGeometry>
        </mxCell>
        <mxCell id="h20ETBpenKTShuIACAdk-71" value="cost_per_month DECIMAL(10,2)" style="shape=partialRectangle;connectable=0;fillColor=none;top=0;left=0;bottom=0;right=0;align=left;spacingLeft=6;overflow=hidden;whiteSpace=wrap;html=1;" parent="h20ETBpenKTShuIACAdk-69" vertex="1">
          <mxGeometry x="30" width="240" height="30" as="geometry">
            <mxRectangle width="240" height="30" as="alternateBounds" />
          </mxGeometry>
        </mxCell>
        <mxCell id="7wBGHGDMTLEawep4TFia-4" value="FK" style="text;html=1;strokeColor=none;fillColor=none;align=center;verticalAlign=middle;whiteSpace=wrap;rounded=0;" parent="1" vertex="1">
          <mxGeometry x="-2780" y="670" width="30" height="30" as="geometry" />
        </mxCell>
        <mxCell id="7wBGHGDMTLEawep4TFia-11" value="" style="endArrow=none;html=1;rounded=0;" parent="1" edge="1">
          <mxGeometry width="50" height="50" relative="1" as="geometry">
            <mxPoint x="-2910" y="570" as="sourcePoint" />
            <mxPoint x="-2990" y="570" as="targetPoint" />
          </mxGeometry>
        </mxCell>
        <mxCell id="7wBGHGDMTLEawep4TFia-13" value="1" style="edgeLabel;html=1;align=center;verticalAlign=middle;resizable=0;points=[];" parent="7wBGHGDMTLEawep4TFia-11" vertex="1" connectable="0">
          <mxGeometry x="0.3413" y="-2" relative="1" as="geometry">
            <mxPoint y="-2" as="offset" />
          </mxGeometry>
        </mxCell>
        <mxCell id="7wBGHGDMTLEawep4TFia-14" value="FK" style="text;html=1;strokeColor=none;fillColor=none;align=center;verticalAlign=middle;whiteSpace=wrap;rounded=0;" parent="1" vertex="1">
          <mxGeometry x="-2848" y="280" width="30" height="20" as="geometry" />
        </mxCell>
        <mxCell id="7wBGHGDMTLEawep4TFia-71" value="&lt;b style=&quot;border-color: var(--border-color); font-size: 14px;&quot;&gt;status_of_request&lt;/b&gt;" style="shape=table;startSize=30;container=1;collapsible=1;childLayout=tableLayout;fixedRows=1;rowLines=0;fontStyle=1;align=center;resizeLast=1;html=1;" parent="1" vertex="1">
          <mxGeometry x="-3180" y="210" width="180" height="90" as="geometry" />
        </mxCell>
        <mxCell id="7wBGHGDMTLEawep4TFia-72" value="" style="shape=tableRow;horizontal=0;startSize=0;swimlaneHead=0;swimlaneBody=0;fillColor=none;collapsible=0;dropTarget=0;points=[[0,0.5],[1,0.5]];portConstraint=eastwest;top=0;left=0;right=0;bottom=1;" parent="7wBGHGDMTLEawep4TFia-71" vertex="1">
          <mxGeometry y="30" width="180" height="30" as="geometry" />
        </mxCell>
        <mxCell id="7wBGHGDMTLEawep4TFia-73" value="PK" style="shape=partialRectangle;connectable=0;fillColor=none;top=0;left=0;bottom=0;right=0;fontStyle=1;overflow=hidden;whiteSpace=wrap;html=1;" parent="7wBGHGDMTLEawep4TFia-72" vertex="1">
          <mxGeometry width="30" height="30" as="geometry">
            <mxRectangle width="30" height="30" as="alternateBounds" />
          </mxGeometry>
        </mxCell>
        <mxCell id="7wBGHGDMTLEawep4TFia-74" value="id INT" style="shape=partialRectangle;connectable=0;fillColor=none;top=0;left=0;bottom=0;right=0;align=left;spacingLeft=6;fontStyle=5;overflow=hidden;whiteSpace=wrap;html=1;" parent="7wBGHGDMTLEawep4TFia-72" vertex="1">
          <mxGeometry x="30" width="150" height="30" as="geometry">
            <mxRectangle width="150" height="30" as="alternateBounds" />
          </mxGeometry>
        </mxCell>
        <mxCell id="7wBGHGDMTLEawep4TFia-75" value="" style="shape=tableRow;horizontal=0;startSize=0;swimlaneHead=0;swimlaneBody=0;fillColor=none;collapsible=0;dropTarget=0;points=[[0,0.5],[1,0.5]];portConstraint=eastwest;top=0;left=0;right=0;bottom=0;" parent="7wBGHGDMTLEawep4TFia-71" vertex="1">
          <mxGeometry y="60" width="180" height="30" as="geometry" />
        </mxCell>
        <mxCell id="7wBGHGDMTLEawep4TFia-76" value="" style="shape=partialRectangle;connectable=0;fillColor=none;top=0;left=0;bottom=0;right=0;editable=1;overflow=hidden;whiteSpace=wrap;html=1;" parent="7wBGHGDMTLEawep4TFia-75" vertex="1">
          <mxGeometry width="30" height="30" as="geometry">
            <mxRectangle width="30" height="30" as="alternateBounds" />
          </mxGeometry>
        </mxCell>
        <mxCell id="7wBGHGDMTLEawep4TFia-77" value="title VARCHAR(30)" style="shape=partialRectangle;connectable=0;fillColor=none;top=0;left=0;bottom=0;right=0;align=left;spacingLeft=6;overflow=hidden;whiteSpace=wrap;html=1;" parent="7wBGHGDMTLEawep4TFia-75" vertex="1">
          <mxGeometry x="30" width="150" height="30" as="geometry">
            <mxRectangle width="150" height="30" as="alternateBounds" />
          </mxGeometry>
        </mxCell>
        <mxCell id="7wBGHGDMTLEawep4TFia-79" value="" style="endArrow=none;html=1;rounded=0;entryX=0;entryY=0.5;entryDx=0;entryDy=0;" parent="1" target="7wBGHGDMTLEawep4TFia-14" edge="1">
          <mxGeometry width="50" height="50" relative="1" as="geometry">
            <mxPoint x="-2930" y="290" as="sourcePoint" />
            <mxPoint x="-2848" y="284" as="targetPoint" />
          </mxGeometry>
        </mxCell>
        <mxCell id="7wBGHGDMTLEawep4TFia-80" value="" style="endArrow=none;html=1;rounded=0;" parent="1" edge="1">
          <mxGeometry width="50" height="50" relative="1" as="geometry">
            <mxPoint x="-2930" y="290" as="sourcePoint" />
            <mxPoint x="-2930" y="260" as="targetPoint" />
          </mxGeometry>
        </mxCell>
        <mxCell id="7wBGHGDMTLEawep4TFia-81" value="" style="endArrow=none;html=1;rounded=0;" parent="1" edge="1">
          <mxGeometry width="50" height="50" relative="1" as="geometry">
            <mxPoint x="-3000" y="260" as="sourcePoint" />
            <mxPoint x="-2930" y="260" as="targetPoint" />
          </mxGeometry>
        </mxCell>
        <mxCell id="7wBGHGDMTLEawep4TFia-100" value="" style="endArrow=none;html=1;rounded=0;" parent="1" edge="1">
          <mxGeometry width="50" height="50" relative="1" as="geometry">
            <mxPoint x="-1790" y="590" as="sourcePoint" />
            <mxPoint x="-1790" y="430" as="targetPoint" />
          </mxGeometry>
        </mxCell>
        <mxCell id="7wBGHGDMTLEawep4TFia-101" value="" style="endArrow=none;html=1;rounded=0;" parent="1" source="7wBGHGDMTLEawep4TFia-103" edge="1">
          <mxGeometry width="50" height="50" relative="1" as="geometry">
            <mxPoint x="-1850" y="590" as="sourcePoint" />
            <mxPoint x="-1790" y="590" as="targetPoint" />
          </mxGeometry>
        </mxCell>
        <mxCell id="7wBGHGDMTLEawep4TFia-104" value="" style="endArrow=none;html=1;rounded=0;" parent="1" target="7wBGHGDMTLEawep4TFia-103" edge="1">
          <mxGeometry width="50" height="50" relative="1" as="geometry">
            <mxPoint x="-1850" y="590" as="sourcePoint" />
            <mxPoint x="-1790" y="590" as="targetPoint" />
          </mxGeometry>
        </mxCell>
        <mxCell id="7wBGHGDMTLEawep4TFia-103" value="1" style="text;html=1;strokeColor=none;fillColor=none;align=center;verticalAlign=middle;whiteSpace=wrap;rounded=0;" parent="1" vertex="1">
          <mxGeometry x="-1840" y="579" width="10" height="21" as="geometry" />
        </mxCell>
        <mxCell id="7wBGHGDMTLEawep4TFia-108" value="есть 3 роли: администратор/модератор, сторудник, студент" style="text;html=1;strokeColor=none;fillColor=none;align=center;verticalAlign=middle;whiteSpace=wrap;rounded=0;" parent="1" vertex="1">
          <mxGeometry x="-2300" y="810" width="110" height="90" as="geometry" />
        </mxCell>
        <mxCell id="7wBGHGDMTLEawep4TFia-109" value="роль администратор может изменять, добавлять и удалять все значения во всех тбалицах" style="text;html=1;strokeColor=none;fillColor=none;align=center;verticalAlign=middle;whiteSpace=wrap;rounded=0;" parent="1" vertex="1">
          <mxGeometry x="-2500" y="920" width="130" height="100" as="geometry" />
        </mxCell>
        <mxCell id="7wBGHGDMTLEawep4TFia-110" value="Сотрудник может изменять статус заявки студента, добавлять новость" style="text;html=1;strokeColor=none;fillColor=none;align=center;verticalAlign=middle;whiteSpace=wrap;rounded=0;" parent="1" vertex="1">
          <mxGeometry x="-2300" y="920" width="130" height="80" as="geometry" />
        </mxCell>
        <mxCell id="7wBGHGDMTLEawep4TFia-111" value="студент может создавать заявку,&amp;nbsp; создавать сообщение в чате" style="text;html=1;strokeColor=none;fillColor=none;align=center;verticalAlign=middle;whiteSpace=wrap;rounded=0;" parent="1" vertex="1">
          <mxGeometry x="-2125" y="940" width="150" height="60" as="geometry" />
        </mxCell>
        <mxCell id="7wBGHGDMTLEawep4TFia-112" value="" style="endArrow=none;html=1;rounded=0;exitX=0.606;exitY=-0.047;exitDx=0;exitDy=0;exitPerimeter=0;" parent="1" source="7wBGHGDMTLEawep4TFia-109" edge="1">
          <mxGeometry width="50" height="50" relative="1" as="geometry">
            <mxPoint x="-2085" y="860" as="sourcePoint" />
            <mxPoint x="-2300" y="856" as="targetPoint" />
          </mxGeometry>
        </mxCell>
        <mxCell id="7wBGHGDMTLEawep4TFia-113" value="" style="endArrow=none;html=1;rounded=0;exitX=0.5;exitY=0;exitDx=0;exitDy=0;" parent="1" source="7wBGHGDMTLEawep4TFia-110" edge="1">
          <mxGeometry width="50" height="50" relative="1" as="geometry">
            <mxPoint x="-2283" y="940" as="sourcePoint" />
            <mxPoint x="-2233" y="890" as="targetPoint" />
          </mxGeometry>
        </mxCell>
        <mxCell id="7wBGHGDMTLEawep4TFia-114" value="" style="endArrow=none;html=1;rounded=0;" parent="1" edge="1">
          <mxGeometry width="50" height="50" relative="1" as="geometry">
            <mxPoint x="-2045" y="930" as="sourcePoint" />
            <mxPoint x="-2170" y="856" as="targetPoint" />
          </mxGeometry>
        </mxCell>
        <mxCell id="7wBGHGDMTLEawep4TFia-115" value="&lt;b style=&quot;border-color: var(--border-color); font-size: 14px;&quot;&gt;type_of_dormitorie&lt;/b&gt;" style="shape=table;startSize=30;container=1;collapsible=1;childLayout=tableLayout;fixedRows=1;rowLines=0;fontStyle=1;align=center;resizeLast=1;html=1;" parent="1" vertex="1">
          <mxGeometry x="-1703" y="624" width="180" height="90" as="geometry" />
        </mxCell>
        <mxCell id="7wBGHGDMTLEawep4TFia-116" value="" style="shape=tableRow;horizontal=0;startSize=0;swimlaneHead=0;swimlaneBody=0;fillColor=none;collapsible=0;dropTarget=0;points=[[0,0.5],[1,0.5]];portConstraint=eastwest;top=0;left=0;right=0;bottom=1;" parent="7wBGHGDMTLEawep4TFia-115" vertex="1">
          <mxGeometry y="30" width="180" height="30" as="geometry" />
        </mxCell>
        <mxCell id="7wBGHGDMTLEawep4TFia-117" value="PK" style="shape=partialRectangle;connectable=0;fillColor=none;top=0;left=0;bottom=0;right=0;fontStyle=1;overflow=hidden;whiteSpace=wrap;html=1;" parent="7wBGHGDMTLEawep4TFia-116" vertex="1">
          <mxGeometry width="30" height="30" as="geometry">
            <mxRectangle width="30" height="30" as="alternateBounds" />
          </mxGeometry>
        </mxCell>
        <mxCell id="7wBGHGDMTLEawep4TFia-118" value="id INT" style="shape=partialRectangle;connectable=0;fillColor=none;top=0;left=0;bottom=0;right=0;align=left;spacingLeft=6;fontStyle=5;overflow=hidden;whiteSpace=wrap;html=1;" parent="7wBGHGDMTLEawep4TFia-116" vertex="1">
          <mxGeometry x="30" width="150" height="30" as="geometry">
            <mxRectangle width="150" height="30" as="alternateBounds" />
          </mxGeometry>
        </mxCell>
        <mxCell id="7wBGHGDMTLEawep4TFia-119" value="" style="shape=tableRow;horizontal=0;startSize=0;swimlaneHead=0;swimlaneBody=0;fillColor=none;collapsible=0;dropTarget=0;points=[[0,0.5],[1,0.5]];portConstraint=eastwest;top=0;left=0;right=0;bottom=0;" parent="7wBGHGDMTLEawep4TFia-115" vertex="1">
          <mxGeometry y="60" width="180" height="30" as="geometry" />
        </mxCell>
        <mxCell id="7wBGHGDMTLEawep4TFia-120" value="" style="shape=partialRectangle;connectable=0;fillColor=none;top=0;left=0;bottom=0;right=0;editable=1;overflow=hidden;whiteSpace=wrap;html=1;" parent="7wBGHGDMTLEawep4TFia-119" vertex="1">
          <mxGeometry width="30" height="30" as="geometry">
            <mxRectangle width="30" height="30" as="alternateBounds" />
          </mxGeometry>
        </mxCell>
        <mxCell id="7wBGHGDMTLEawep4TFia-121" value="title VARCHAR(30)" style="shape=partialRectangle;connectable=0;fillColor=none;top=0;left=0;bottom=0;right=0;align=left;spacingLeft=6;overflow=hidden;whiteSpace=wrap;html=1;" parent="7wBGHGDMTLEawep4TFia-119" vertex="1">
          <mxGeometry x="30" width="150" height="30" as="geometry">
            <mxRectangle width="150" height="30" as="alternateBounds" />
          </mxGeometry>
        </mxCell>
        <mxCell id="7wBGHGDMTLEawep4TFia-122" value="" style="endArrow=none;html=1;rounded=0;" parent="1" source="7wBGHGDMTLEawep4TFia-129" edge="1">
          <mxGeometry width="50" height="50" relative="1" as="geometry">
            <mxPoint x="-1816" y="663.5699999999999" as="sourcePoint" />
            <mxPoint x="-1703" y="664" as="targetPoint" />
          </mxGeometry>
        </mxCell>
        <mxCell id="7wBGHGDMTLEawep4TFia-134" value="" style="endArrow=none;html=1;rounded=0;" parent="1" target="7wBGHGDMTLEawep4TFia-129" edge="1">
          <mxGeometry width="50" height="50" relative="1" as="geometry">
            <mxPoint x="-1510" y="490" as="sourcePoint" />
            <mxPoint x="-1760" y="290" as="targetPoint" />
            <Array as="points">
              <mxPoint x="-1510" y="590" />
              <mxPoint x="-1540" y="590" />
              <mxPoint x="-1718" y="590" />
            </Array>
          </mxGeometry>
        </mxCell>
        <mxCell id="7wBGHGDMTLEawep4TFia-129" value="1" style="text;html=1;strokeColor=none;fillColor=none;align=center;verticalAlign=middle;whiteSpace=wrap;rounded=0;" parent="1" vertex="1">
          <mxGeometry x="-1723" y="654" width="10" height="21" as="geometry" />
        </mxCell>
        <mxCell id="7wBGHGDMTLEawep4TFia-136" value="" style="endArrow=none;html=1;rounded=0;exitX=0.998;exitY=0.659;exitDx=0;exitDy=0;exitPerimeter=0;" parent="1" source="wbYHn1VK7xFjra4TpRxV-156" edge="1">
          <mxGeometry width="50" height="50" relative="1" as="geometry">
            <mxPoint x="-1530" y="490" as="sourcePoint" />
            <mxPoint x="-1510" y="490" as="targetPoint" />
          </mxGeometry>
        </mxCell>
        <mxCell id="7wBGHGDMTLEawep4TFia-124" value="M" style="text;html=1;strokeColor=none;fillColor=none;align=center;verticalAlign=middle;whiteSpace=wrap;rounded=0;" parent="1" vertex="1">
          <mxGeometry x="-1523" y="479" width="10" height="21" as="geometry" />
        </mxCell>
        <mxCell id="7wBGHGDMTLEawep4TFia-139" value="" style="endArrow=none;html=1;rounded=0;exitX=1;exitY=0.5;exitDx=0;exitDy=0;" parent="1" source="7wBGHGDMTLEawep4TFia-106" edge="1">
          <mxGeometry width="50" height="50" relative="1" as="geometry">
            <mxPoint x="-1860" y="400" as="sourcePoint" />
            <mxPoint x="-1790" y="430" as="targetPoint" />
            <Array as="points" />
          </mxGeometry>
        </mxCell>
        <mxCell id="7wBGHGDMTLEawep4TFia-140" value="" style="endArrow=none;html=1;rounded=0;" parent="1" source="7wBGHGDMTLEawep4TFia-149" edge="1">
          <mxGeometry width="50" height="50" relative="1" as="geometry">
            <mxPoint x="-2210" y="310" as="sourcePoint" />
            <mxPoint x="-2150" y="310" as="targetPoint" />
          </mxGeometry>
        </mxCell>
        <mxCell id="7wBGHGDMTLEawep4TFia-141" value="" style="endArrow=none;html=1;rounded=0;" parent="1" edge="1">
          <mxGeometry width="50" height="50" relative="1" as="geometry">
            <mxPoint x="-2150" y="400" as="sourcePoint" />
            <mxPoint x="-2150" y="310" as="targetPoint" />
          </mxGeometry>
        </mxCell>
        <mxCell id="7wBGHGDMTLEawep4TFia-142" value="" style="endArrow=none;html=1;rounded=0;entryX=0;entryY=0.5;entryDx=0;entryDy=0;" parent="1" source="7wBGHGDMTLEawep4TFia-154" target="h20ETBpenKTShuIACAdk-40" edge="1">
          <mxGeometry width="50" height="50" relative="1" as="geometry">
            <mxPoint x="-2150" y="400" as="sourcePoint" />
            <mxPoint x="-2100" y="350" as="targetPoint" />
          </mxGeometry>
        </mxCell>
        <mxCell id="7wBGHGDMTLEawep4TFia-145" value="" style="endArrow=none;html=1;rounded=0;exitX=1;exitY=0.5;exitDx=0;exitDy=0;" parent="1" source="h20ETBpenKTShuIACAdk-43" target="7wBGHGDMTLEawep4TFia-106" edge="1">
          <mxGeometry width="50" height="50" relative="1" as="geometry">
            <mxPoint x="-1860" y="429" as="sourcePoint" />
            <mxPoint x="-1790" y="430" as="targetPoint" />
            <Array as="points" />
          </mxGeometry>
        </mxCell>
        <mxCell id="7wBGHGDMTLEawep4TFia-106" value="M" style="text;html=1;strokeColor=none;fillColor=none;align=center;verticalAlign=middle;whiteSpace=wrap;rounded=0;" parent="1" vertex="1">
          <mxGeometry x="-1840" y="418.5" width="10" height="21" as="geometry" />
        </mxCell>
        <mxCell id="7wBGHGDMTLEawep4TFia-146" value="FK" style="text;html=1;strokeColor=none;fillColor=none;align=center;verticalAlign=middle;whiteSpace=wrap;rounded=0;" parent="1" vertex="1">
          <mxGeometry x="-2090" y="418.5" width="30" height="16" as="geometry" />
        </mxCell>
        <mxCell id="7wBGHGDMTLEawep4TFia-156" value="" style="endArrow=none;html=1;rounded=0;entryX=0;entryY=0.5;entryDx=0;entryDy=0;" parent="1" target="7wBGHGDMTLEawep4TFia-154" edge="1">
          <mxGeometry width="50" height="50" relative="1" as="geometry">
            <mxPoint x="-2150" y="400" as="sourcePoint" />
            <mxPoint x="-2090" y="399" as="targetPoint" />
          </mxGeometry>
        </mxCell>
        <mxCell id="7wBGHGDMTLEawep4TFia-154" value="1" style="text;html=1;strokeColor=none;fillColor=none;align=center;verticalAlign=middle;whiteSpace=wrap;rounded=0;" parent="1" vertex="1">
          <mxGeometry x="-2115" y="389" width="5" height="21" as="geometry" />
        </mxCell>
        <mxCell id="7wBGHGDMTLEawep4TFia-158" value="" style="endArrow=none;html=1;rounded=0;" parent="1" target="7wBGHGDMTLEawep4TFia-149" edge="1">
          <mxGeometry width="50" height="50" relative="1" as="geometry">
            <mxPoint x="-2210" y="310" as="sourcePoint" />
            <mxPoint x="-2150" y="310" as="targetPoint" />
          </mxGeometry>
        </mxCell>
        <mxCell id="7wBGHGDMTLEawep4TFia-149" value="M" style="text;html=1;strokeColor=none;fillColor=none;align=center;verticalAlign=middle;whiteSpace=wrap;rounded=0;" parent="1" vertex="1">
          <mxGeometry x="-2190" y="301" width="10" height="16" as="geometry" />
        </mxCell>
        <mxCell id="7wBGHGDMTLEawep4TFia-159" value="" style="endArrow=none;html=1;rounded=0;" parent="1" edge="1">
          <mxGeometry width="50" height="50" relative="1" as="geometry">
            <mxPoint x="-2060" y="500" as="sourcePoint" />
            <mxPoint x="-2060" y="469" as="targetPoint" />
          </mxGeometry>
        </mxCell>
        <mxCell id="7wBGHGDMTLEawep4TFia-163" value="FK" style="text;html=1;strokeColor=none;fillColor=none;align=center;verticalAlign=middle;whiteSpace=wrap;rounded=0;" parent="1" vertex="1">
          <mxGeometry x="-2090" y="479" width="30" height="16" as="geometry" />
        </mxCell>
        <mxCell id="7wBGHGDMTLEawep4TFia-164" value="id_dormitorie INT" style="text;html=1;strokeColor=none;fillColor=none;align=center;verticalAlign=middle;whiteSpace=wrap;rounded=0;" parent="1" vertex="1">
          <mxGeometry x="-2060" y="469.5" width="120" height="30" as="geometry" />
        </mxCell>
        <mxCell id="7wBGHGDMTLEawep4TFia-165" value="" style="endArrow=none;html=1;rounded=0;" parent="1" edge="1">
          <mxGeometry width="50" height="50" relative="1" as="geometry">
            <mxPoint x="-1860" y="484.5" as="sourcePoint" />
            <mxPoint x="-1780" y="485" as="targetPoint" />
          </mxGeometry>
        </mxCell>
        <mxCell id="7wBGHGDMTLEawep4TFia-166" value="" style="endArrow=none;html=1;rounded=0;" parent="1" edge="1">
          <mxGeometry width="50" height="50" relative="1" as="geometry">
            <mxPoint x="-1780" y="484.5" as="sourcePoint" />
            <mxPoint x="-1780" y="400" as="targetPoint" />
          </mxGeometry>
        </mxCell>
        <mxCell id="7wBGHGDMTLEawep4TFia-167" value="" style="endArrow=none;html=1;rounded=0;entryX=0;entryY=0.666;entryDx=0;entryDy=0;entryPerimeter=0;" parent="1" target="wbYHn1VK7xFjra4TpRxV-103" edge="1">
          <mxGeometry width="50" height="50" relative="1" as="geometry">
            <mxPoint x="-1780" y="400" as="sourcePoint" />
            <mxPoint x="-1730" y="350" as="targetPoint" />
            <Array as="points">
              <mxPoint x="-1770" y="400" />
            </Array>
          </mxGeometry>
        </mxCell>
        <mxCell id="7wBGHGDMTLEawep4TFia-168" value="M" style="text;html=1;strokeColor=none;fillColor=none;align=center;verticalAlign=middle;whiteSpace=wrap;rounded=0;" parent="1" vertex="1">
          <mxGeometry x="-1850" y="474" width="10" height="21" as="geometry" />
        </mxCell>
        <mxCell id="7wBGHGDMTLEawep4TFia-170" value="1" style="text;html=1;strokeColor=none;fillColor=none;align=center;verticalAlign=middle;whiteSpace=wrap;rounded=0;" parent="1" vertex="1">
          <mxGeometry x="-1780" y="389" width="10" height="10" as="geometry" />
        </mxCell>
        <mxCell id="7wBGHGDMTLEawep4TFia-176" value="" style="endArrow=none;html=1;rounded=0;" parent="1" edge="1">
          <mxGeometry width="50" height="50" relative="1" as="geometry">
            <mxPoint x="-2910" y="680" as="sourcePoint" />
            <mxPoint x="-2910" y="570" as="targetPoint" />
          </mxGeometry>
        </mxCell>
        <mxCell id="7wBGHGDMTLEawep4TFia-178" value="" style="endArrow=none;html=1;rounded=0;entryX=-0.022;entryY=0.351;entryDx=0;entryDy=0;entryPerimeter=0;" parent="1" target="7wBGHGDMTLEawep4TFia-4" edge="1">
          <mxGeometry width="50" height="50" relative="1" as="geometry">
            <mxPoint x="-2910" y="680" as="sourcePoint" />
            <mxPoint x="-2860" y="630" as="targetPoint" />
          </mxGeometry>
        </mxCell>
        <mxCell id="HB7UT64dNbQl0LlO4wfg-1" value="" style="endArrow=none;html=1;rounded=0;" parent="1" edge="1">
          <mxGeometry width="50" height="50" relative="1" as="geometry">
            <mxPoint x="-2818" y="370" as="sourcePoint" />
            <mxPoint x="-2818" y="335" as="targetPoint" />
          </mxGeometry>
        </mxCell>
        <mxCell id="HB7UT64dNbQl0LlO4wfg-2" value="id_employee&amp;nbsp; INT" style="text;html=1;strokeColor=none;fillColor=none;align=center;verticalAlign=middle;whiteSpace=wrap;rounded=0;" parent="1" vertex="1">
          <mxGeometry x="-2820" y="339" width="130" height="30" as="geometry" />
        </mxCell>
        <mxCell id="HB7UT64dNbQl0LlO4wfg-20" value="FK" style="text;html=1;strokeColor=none;fillColor=none;align=center;verticalAlign=middle;whiteSpace=wrap;rounded=0;" parent="1" vertex="1">
          <mxGeometry x="-2848" y="339" width="30" height="31" as="geometry" />
        </mxCell>
        <mxCell id="HB7UT64dNbQl0LlO4wfg-21" value="" style="endArrow=none;html=1;rounded=0;" parent="1" edge="1">
          <mxGeometry width="50" height="50" relative="1" as="geometry">
            <mxPoint x="-2990" y="560" as="sourcePoint" />
            <mxPoint x="-2910" y="560" as="targetPoint" />
          </mxGeometry>
        </mxCell>
        <mxCell id="HB7UT64dNbQl0LlO4wfg-22" value="" style="endArrow=none;html=1;rounded=0;" parent="1" edge="1">
          <mxGeometry width="50" height="50" relative="1" as="geometry">
            <mxPoint x="-2910" y="560" as="sourcePoint" />
            <mxPoint x="-2910" y="350" as="targetPoint" />
          </mxGeometry>
        </mxCell>
        <mxCell id="HB7UT64dNbQl0LlO4wfg-23" value="" style="endArrow=none;html=1;rounded=0;" parent="1" source="HB7UT64dNbQl0LlO4wfg-24" edge="1">
          <mxGeometry width="50" height="50" relative="1" as="geometry">
            <mxPoint x="-2910" y="350" as="sourcePoint" />
            <mxPoint x="-2850" y="350" as="targetPoint" />
          </mxGeometry>
        </mxCell>
        <mxCell id="HB7UT64dNbQl0LlO4wfg-25" value="" style="endArrow=none;html=1;rounded=0;" parent="1" target="HB7UT64dNbQl0LlO4wfg-24" edge="1">
          <mxGeometry width="50" height="50" relative="1" as="geometry">
            <mxPoint x="-2910" y="350" as="sourcePoint" />
            <mxPoint x="-2850" y="350" as="targetPoint" />
          </mxGeometry>
        </mxCell>
        <mxCell id="HB7UT64dNbQl0LlO4wfg-24" value="M" style="text;html=1;strokeColor=none;fillColor=none;align=center;verticalAlign=middle;whiteSpace=wrap;rounded=0;" parent="1" vertex="1">
          <mxGeometry x="-2880" y="339" width="10" height="21" as="geometry" />
        </mxCell>
        <mxCell id="HB7UT64dNbQl0LlO4wfg-26" value="1" style="text;html=1;strokeColor=none;fillColor=none;align=center;verticalAlign=middle;whiteSpace=wrap;rounded=0;" parent="1" vertex="1">
          <mxGeometry x="-2940" y="550" width="20" height="20" as="geometry" />
        </mxCell>
      </root>
    </mxGraphModel>
  </diagram>
</mxfile>
